<svg xmlns="http://www.w3.org/2000/svg" id="Layer_1" data-name="Layer 1" viewBox="0 0 283.46 283.46"><defs><clipPath id="clippath"><circle cx="141.73" cy="141.73" r="141.73" style="fill:none"/></clipPath><style>.cls-4,.cls-6{fill:#00d1a7}.cls-6{opacity:.5}</style></defs><circle cx="141.73" cy="141.73" r="141.73" style="fill:#00294d"/><g style="opacity:.7"><g style="clip-path:url(#clippath)"><rect width="9.47" height="9.47" x="7.94" y="138.57" class="cls-4" rx="4.74" ry="4.74" transform="rotate(-180 12.675 143.305)"/><rect width="9.47" height="9.47" x="7.94" y="124.02" class="cls-4" rx="4.74" ry="4.74" transform="rotate(180 12.675 128.755)"/><rect width="9.47" height="9.47" x="7.94" y="48.34" class="cls-4" rx="4.74" ry="4.74" transform="rotate(-180 12.675 53.075)"/><rect width="9.47" height="9.47" x="7.94" y="11.4" class="cls-4" rx="4.74" ry="4.74" transform="rotate(180 12.675 16.135)"/><rect width="9.47" height="9.47" x="7.94" y="61.31" class="cls-4" rx="4.74" ry="4.74" transform="rotate(-180 12.675 66.05)"/><rect width="9.47" height="20.46" x="7.94" y="98.26" class="cls-6" rx="4.74" ry="4.74" transform="rotate(180 12.675 108.485)"/><rect width="9.47" height="20.46" x="7.94" y="74.29" class="cls-4" rx="4.74" ry="4.74" transform="rotate(180 12.675 84.52)"/><rect width="9.47" height="20.46" x="7.94" y="24.37" class="cls-4" rx="4.74" ry="4.74" transform="rotate(-180 12.675 34.605)"/><rect width="9.47" height="9.47" x="25.15" y="144.08" class="cls-4" rx="4.74" ry="4.74"/><rect width="9.47" height="9.47" x="25.15" y="157.05" class="cls-6" rx="4.74" ry="4.74"/><rect width="9.47" height="9.47" x="25.15" y="69.49" class="cls-4" rx="4.74" ry="4.74"/><rect width="9.47" height="9.47" x="25.15" y="106.44" class="cls-4" rx="4.74" ry="4.74"/><rect width="9.47" height="9.47" x="25.15" y="56.52" class="cls-4" rx="4.74" ry="4.74"/><rect width="9.47" height="20.46" x="25.15" y="8.59" class="cls-4" rx="4.74" ry="4.74"/><rect width="9.47" height="20.46" x="25.15" y="32.55" class="cls-4" rx="4.74" ry="4.74"/><rect width="9.47" height="20.46" x="25.15" y="82.47" class="cls-4" rx="4.74" ry="4.74"/><rect width="9.47" height="20.46" x="25.15" y="119.41" class="cls-4" rx="4.74" ry="4.74"/><rect width="9.47" height="9.47" x="76.77" y="-9.32" class="cls-4" rx="4.74" ry="4.74"/><rect width="9.47" height="9.47" x="76.77" y="3.66" class="cls-4" rx="4.74" ry="4.74"/><rect width="9.47" height="9.47" x="76.77" y="16.63" class="cls-4" rx="4.74" ry="4.74"/><rect width="9.47" height="9.47" x="76.77" y="53.57" class="cls-6" rx="4.74" ry="4.74"/><rect width="9.47" height="9.47" x="76.77" y="66.55" class="cls-4" rx="4.74" ry="4.74"/><rect width="9.47" height="20.46" x="76.77" y="29.61" class="cls-4" rx="4.74" ry="4.74"/><rect width="9.47" height="9.47" x="76.77" y="103.49" class="cls-6" rx="4.74" ry="4.74"/><rect width="9.47" height="9.47" x="76.77" y="116.47" class="cls-4" rx="4.74" ry="4.74"/><rect width="9.47" height="20.46" x="76.77" y="79.53" class="cls-4" rx="4.74" ry="4.74"/><rect width="9.47" height="9.47" x="42.35" y="153.28" class="cls-4" rx="4.74" ry="4.74" transform="rotate(180 47.09 158.02)"/><rect width="9.47" height="9.47" x="42.35" y="138.57" class="cls-4" rx="4.74" ry="4.74" transform="rotate(-180 47.09 143.305)"/><rect width="9.47" height="9.47" x="42.35" y="64.69" class="cls-6" rx="4.74" ry="4.74" transform="rotate(-180 47.09 69.425)"/><rect width="9.47" height="9.47" x="42.35" y="27.75" class="cls-4" rx="4.74" ry="4.74" transform="rotate(180 47.09 32.48)"/><rect width="9.47" height="9.47" x="42.35" y="77.66" class="cls-4" rx="4.74" ry="4.74" transform="rotate(-180 47.09 82.4)"/><rect width="9.47" height="20.46" x="42.35" y="114.6" class="cls-6" rx="4.74" ry="4.74" transform="rotate(180 47.09 124.835)"/><rect width="9.47" height="20.46" x="42.35" y="90.64" class="cls-4" rx="4.74" ry="4.74" transform="rotate(-180 47.09 100.87)"/><rect width="9.47" height="20.46" x="42.35" y="40.72" class="cls-4" rx="4.74" ry="4.74" transform="rotate(180 47.09 50.955)"/><rect width="9.47" height="20.46" x="42.35" y="3.78" class="cls-4" rx="4.74" ry="4.74" transform="rotate(180 47.09 14.01)"/><rect width="9.47" height="9.47" x="59.56" y="40.47" class="cls-4" rx="4.74" ry="4.74"/><rect width="9.47" height="9.47" x="59.56" y="53.45" class="cls-6" rx="4.74" ry="4.74"/><rect width="9.47" height="9.47" x="59.56" y="66.43" class="cls-6" rx="4.74" ry="4.74"/><rect width="9.47" height="9.47" x="59.56" y="79.4" class="cls-4" rx="4.74" ry="4.74"/><rect width="9.47" height="9.47" x="59.56" y="153.28" class="cls-6" rx="4.74" ry="4.74"/><rect width="9.47" height="9.47" x="59.56" y="140.31" class="cls-4" rx="4.74" ry="4.74"/><rect width="9.47" height="20.46" x="59.56" y="16.51" class="cls-4" rx="4.74" ry="4.74"/><rect width="9.47" height="20.46" x="59.56" y="92.38" class="cls-4" rx="4.74" ry="4.74"/><rect width="9.47" height="20.46" x="59.56" y="116.34" class="cls-4" rx="4.74" ry="4.74"/><rect width="9.47" height="9.47" x="93.98" y="20.75" class="cls-4" rx="4.74" ry="4.74"/><rect width="9.47" height="9.47" x="93.98" y="33.98" class="cls-6" rx="4.74" ry="4.74"/><rect width="9.47" height="9.47" x="93.98" y="47.2" class="cls-4" rx="4.74" ry="4.74"/><rect width="9.47" height="9.47" x="93.98" y="7.53" class="cls-4" rx="4.74" ry="4.74"/><rect width="9.47" height="9.47" x="93.98" y="84.64" class="cls-4" rx="4.74" ry="4.74"/><rect width="9.47" height="20.46" x="93.98" y="60.42" class="cls-4" rx="4.74" ry="4.74"/><rect width="9.47" height="20.46" x="93.98" y="97.86" class="cls-4" rx="4.74" ry="4.74"/><rect width="9.47" height="9.47" x="111.18" y="7.13" class="cls-4" rx="4.74" ry="4.74"/><rect width="9.47" height="9.47" x="111.18" y="20.13" class="cls-4" rx="4.74" ry="4.74"/><rect width="9.47" height="9.47" x="111.18" y="33.14" class="cls-4" rx="4.74" ry="4.74"/><rect width="9.47" height="9.47" x="111.18" y="46.15" class="cls-4" rx="4.74" ry="4.74"/><rect width="9.47" height="9.47" x="111.18" y="83.15" class="cls-4" rx="4.74" ry="4.74"/><rect width="9.47" height="20.46" x="111.18" y="-16.87" class="cls-4" rx="4.74" ry="4.74"/><rect width="9.47" height="20.46" x="111.18" y="59.15" class="cls-6" rx="4.74" ry="4.74"/><rect width="9.47" height="20.46" x="111.18" y="97.51" class="cls-6" rx="4.74" ry="4.74"/><rect width="9.47" height="9.47" x="128.39" y="38.92" class="cls-6" rx="4.74" ry="4.74"/><rect width="9.47" height="9.47" x="128.39" y="53.12" class="cls-4" rx="4.74" ry="4.74"/><rect width="9.47" height="20.46" x="128.39" y="-9.01" class="cls-4" rx="4.74" ry="4.74"/><rect width="9.47" height="20.46" x="128.39" y="14.95" class="cls-4" rx="4.74" ry="4.74"/><rect width="9.47" height="20.46" x="128.39" y="66.86" class="cls-4" rx="4.74" ry="4.74"/><rect width="9.47" height="9.47" x="145.6" y="2.01" class="cls-4" rx="4.74" ry="4.74"/><rect width="9.47" height="9.47" x="145.6" y="14.99" class="cls-6" rx="4.74" ry="4.74"/><rect width="9.47" height="9.47" x="145.6" y="51.93" class="cls-4" rx="4.74" ry="4.74"/><rect width="9.47" height="9.47" x="145.6" y="64.91" class="cls-6" rx="4.74" ry="4.74"/><rect width="9.47" height="9.47" x="145.6" y="78.41" class="cls-6" rx="4.74" ry="4.74"/><rect width="9.47" height="20.46" x="145.6" y="27.97" class="cls-4" rx="4.74" ry="4.74"/><rect width="9.47" height="9.47" x="162.81" y="73.15" class="cls-6" rx="4.74" ry="4.74" transform="rotate(180 167.545 77.885)"/><rect width="9.47" height="9.47" x="162.81" y="59.48" class="cls-4" rx="4.74" ry="4.74" transform="rotate(-180 167.545 64.22)"/><rect width="9.47" height="9.47" x="162.81" y="111.61" class="cls-4" rx="4.74" ry="4.74" transform="rotate(180 167.545 116.345)"/><rect width="9.47" height="9.47" x="162.81" y="-2.95" class="cls-4" rx="4.74" ry="4.74" transform="rotate(-180 167.545 1.78)"/><rect width="9.47" height="20.46" x="162.81" y="33.99" class="cls-6" rx="4.74" ry="4.74" transform="rotate(-180 167.545 44.215)"/><rect width="9.47" height="20.46" x="162.81" y="10.02" class="cls-4" rx="4.74" ry="4.74" transform="rotate(-180 167.545 20.25)"/><rect width="9.47" height="20.46" x="162.81" y="86.61" class="cls-4" rx="4.74" ry="4.74" transform="rotate(180 167.545 96.84)"/><rect width="9.47" height="9.47" x="180.01" y="61.33" class="cls-4" rx="4.74" ry="4.74"/><rect width="9.47" height="9.47" x="180.01" y="74.3" class="cls-4" rx="4.74" ry="4.74"/><rect width="9.47" height="9.47" x="180.01" y="87.28" class="cls-4" rx="4.74" ry="4.74"/><rect width="9.47" height="9.47" x="180.01" y="23.17" class="cls-4" rx="4.74" ry="4.74"/><rect width="9.47" height="20.46" x="180.01" y="-.79" class="cls-4" rx="4.74" ry="4.74"/><rect width="9.47" height="20.46" x="180.01" y="36.15" class="cls-6" rx="4.74" ry="4.74"/><rect width="9.47" height="20.46" x="180.01" y="100.87" class="cls-6" rx="4.74" ry="4.74"/><rect width="9.47" height="9.47" x="231.64" y="48.35" class="cls-4" rx="4.74" ry="4.74"/><rect width="9.47" height="9.47" x="231.64" y="61.33" class="cls-6" rx="4.74" ry="4.74"/><rect width="9.47" height="9.47" x="231.64" y="74.3" class="cls-4" rx="4.74" ry="4.74"/><rect width="9.47" height="9.47" x="231.64" y="111.24" class="cls-6" rx="4.74" ry="4.74"/><rect width="9.47" height="9.47" x="231.64" y="124.22" class="cls-4" rx="4.74" ry="4.74"/><rect width="9.47" height="20.46" x="231.64" y=".42" class="cls-4" rx="4.74" ry="4.74"/><rect width="9.47" height="20.46" x="231.64" y="87.28" class="cls-4" rx="4.74" ry="4.74"/><rect width="9.47" height="9.47" x="231.64" y="161.16" class="cls-4" rx="4.74" ry="4.74"/><rect width="9.47" height="20.46" x="231.64" y="137.2" class="cls-4" rx="4.74" ry="4.74"/><rect width="9.47" height="20.46" x="231.64" y="24.39" class="cls-4" rx="4.74" ry="4.74"/><rect width="9.47" height="9.47" x="197.22" y="146.29" class="cls-4" rx="4.74" ry="4.74" transform="rotate(180 201.96 151.025)"/><rect width="9.47" height="9.47" x="197.22" y="159.3" class="cls-4" rx="4.74" ry="4.74" transform="rotate(180 201.96 164.03)"/><rect width="9.47" height="9.47" x="197.22" y="132.26" class="cls-6" rx="4.74" ry="4.74" transform="rotate(-180 201.96 136.995)"/><rect width="9.47" height="9.47" x="197.22" y="58.38" class="cls-6" rx="4.74" ry="4.74" transform="rotate(-180 201.96 63.115)"/><rect width="9.47" height="9.47" x="197.22" y="21.44" class="cls-4" rx="4.74" ry="4.74" transform="rotate(180 201.96 26.175)"/><rect width="9.47" height="9.47" x="197.22" y="71.35" class="cls-4" rx="4.74" ry="4.74" transform="rotate(180 201.96 76.09)"/><rect width="9.47" height="20.46" x="197.22" y="108.29" class="cls-4" rx="4.74" ry="4.74" transform="rotate(180 201.96 118.525)"/><rect width="9.47" height="20.46" x="197.22" y="84.33" class="cls-6" rx="4.74" ry="4.74" transform="rotate(-180 201.96 94.56)"/><rect width="9.47" height="20.46" x="197.22" y="34.41" class="cls-4" rx="4.74" ry="4.74" transform="rotate(-180 201.96 44.645)"/><rect width="9.47" height="20.46" x="197.22" y="-2.53" class="cls-4" rx="4.74" ry="4.74" transform="rotate(180 201.96 7.705)"/><rect width="9.47" height="9.47" x="214.43" y="-.92" class="cls-4" rx="4.74" ry="4.74"/><rect width="9.47" height="9.47" x="214.43" y="12.06" class="cls-4" rx="4.74" ry="4.74"/><rect width="9.47" height="9.47" x="214.43" y="85.94" class="cls-4" rx="4.74" ry="4.74"/><rect width="9.47" height="9.47" x="214.43" y="72.96" class="cls-4" rx="4.74" ry="4.74"/><rect width="9.47" height="20.46" x="214.43" y="25.03" class="cls-4" rx="4.74" ry="4.74"/><rect width="9.47" height="9.47" x="214.43" y="124.86" class="cls-4" rx="4.74" ry="4.74"/><rect width="9.47" height="9.47" x="214.43" y="137.84" class="cls-4" rx="4.74" ry="4.74"/><rect width="9.47" height="9.47" x="214.43" y="150.82" class="cls-6" rx="4.74" ry="4.74"/><rect width="9.47" height="20.46" x="214.43" y="163.79" class="cls-4" rx="4.74" ry="4.74"/><rect width="9.47" height="20.46" x="214.43" y="49" class="cls-6" rx="4.74" ry="4.74"/><rect width="9.47" height="20.46" x="214.43" y="98.91" class="cls-6" rx="4.74" ry="4.74"/><rect width="9.47" height="9.47" x="248.84" y="86.12" class="cls-6" rx="4.74" ry="4.74"/><rect width="9.47" height="9.47" x="248.84" y="99.35" class="cls-4" rx="4.74" ry="4.74"/><rect width="9.47" height="9.47" x="248.84" y="112.57" class="cls-4" rx="4.74" ry="4.74"/><rect width="9.47" height="9.47" x="248.84" y="35.46" class="cls-4" rx="4.74" ry="4.74"/><rect width="9.47" height="9.47" x="248.84" y="72.9" class="cls-4" rx="4.74" ry="4.74"/><rect width="9.47" height="9.47" x="248.84" y="150.01" class="cls-4" rx="4.74" ry="4.74"/><rect width="9.47" height="9.47" x="248.84" y="162.72" class="cls-6" rx="4.74" ry="4.74"/><rect width="9.47" height="9.47" x="248.84" y="22.24" class="cls-4" rx="4.74" ry="4.74"/><rect width="9.47" height="20.46" x="248.84" y="48.69" class="cls-6" rx="4.74" ry="4.74"/><rect width="9.47" height="20.46" x="248.84" y="125.8" class="cls-6" rx="4.74" ry="4.74"/><rect width="9.47" height="9.47" x="266.05" y="93.56" class="cls-4" rx="4.74" ry="4.74" transform="rotate(180 270.79 98.3)"/><rect width="9.47" height="9.47" x="266.05" y="80.56" class="cls-4" rx="4.74" ry="4.74" transform="rotate(180 270.79 85.295)"/><rect width="9.47" height="9.47" x="266.05" y="154.56" class="cls-4" rx="4.74" ry="4.74" transform="rotate(-180 270.79 159.295)"/><rect width="9.47" height="9.47" x="266.05" y="67.55" class="cls-4" rx="4.74" ry="4.74" transform="rotate(-180 270.79 72.29)"/><rect width="9.47" height="9.47" x="266.05" y="54.55" class="cls-4" rx="4.74" ry="4.74" transform="rotate(-180 270.79 59.28)"/><rect width="9.47" height="9.47" x="266.05" y="17.54" class="cls-4" rx="4.74" ry="4.74" transform="rotate(-180 270.79 22.28)"/><rect width="9.47" height="20.46" x="266.05" y="106.57" class="cls-6" rx="4.74" ry="4.74" transform="rotate(-180 270.79 116.8)"/><rect width="9.47" height="20.46" x="266.05" y="30.55" class="cls-4" rx="4.74" ry="4.74" transform="rotate(180 270.79 40.78)"/><rect width="9.47" height="20.46" x="266.05" y="130.56" class="cls-4" rx="4.74" ry="4.74" transform="rotate(-180 270.79 140.795)"/><rect width="9.47" height="9.47" x="7.94" y="213.96" class="cls-4" rx="4.74" ry="4.74" transform="rotate(-180 12.675 218.695)"/><rect width="9.47" height="9.47" x="7.94" y="250.9" class="cls-4" rx="4.74" ry="4.74" transform="rotate(180 12.675 255.635)"/><rect width="9.47" height="9.47" x="7.94" y="200.98" class="cls-4" rx="4.74" ry="4.74" transform="rotate(-180 12.675 205.715)"/><rect width="9.47" height="20.46" x="7.94" y="153.05" class="cls-6" rx="4.74" ry="4.74" transform="rotate(180 12.675 163.285)"/><rect width="9.47" height="20.46" x="7.94" y="177.02" class="cls-4" rx="4.74" ry="4.74" transform="rotate(-180 12.675 187.245)"/><rect width="9.47" height="20.46" x="7.94" y="226.93" class="cls-4" rx="4.74" ry="4.74" transform="rotate(-180 12.675 237.165)"/><rect width="9.47" height="9.47" x="25.15" y="206.97" class="cls-4" rx="4.74" ry="4.74"/><rect width="9.47" height="9.47" x="25.15" y="170.03" class="cls-4" rx="4.74" ry="4.74"/><rect width="9.47" height="9.47" x="25.15" y="219.95" class="cls-4" rx="4.74" ry="4.74"/><rect width="9.47" height="20.46" x="25.15" y="256.89" class="cls-4" rx="4.74" ry="4.74"/><rect width="9.47" height="20.46" x="25.15" y="232.92" class="cls-4" rx="4.74" ry="4.74"/><rect width="9.47" height="20.46" x="25.15" y="183.01" class="cls-4" rx="4.74" ry="4.74"/><rect width="9.47" height="9.47" x="76.77" y="258.33" class="cls-4" rx="4.74" ry="4.74"/><rect width="9.47" height="9.47" x="76.77" y="245.35" class="cls-4" rx="4.74" ry="4.74"/><rect width="9.47" height="9.47" x="76.77" y="232.38" class="cls-4" rx="4.74" ry="4.74"/><rect width="9.47" height="9.47" x="76.77" y="195.44" class="cls-6" rx="4.74" ry="4.74"/><rect width="9.47" height="9.47" x="93.98" y="161.79" class="cls-6" rx="4.74" ry="4.74"/><rect width="9.47" height="9.47" x="76.77" y="182.46" class="cls-4" rx="4.74" ry="4.74"/><rect width="9.47" height="20.46" x="76.77" y="208.41" class="cls-4" rx="4.74" ry="4.74"/><rect width="9.47" height="20.46" x="76.77" y="271.79" class="cls-4" rx="4.74" ry="4.74"/><rect width="9.47" height="9.47" x="76.77" y="145.52" class="cls-6" rx="4.74" ry="4.74"/><rect width="9.47" height="9.47" x="76.77" y="132.54" class="cls-4" rx="4.74" ry="4.74"/><rect width="9.47" height="20.46" x="76.77" y="158.5" class="cls-4" rx="4.74" ry="4.74"/><rect width="9.47" height="9.47" x="42.35" y="204.64" class="cls-6" rx="4.74" ry="4.74" transform="rotate(-180 47.09 209.375)"/><rect width="9.47" height="9.47" x="42.35" y="241.58" class="cls-4" rx="4.74" ry="4.74" transform="rotate(-180 47.09 246.315)"/><rect width="9.47" height="9.47" x="42.35" y="191.66" class="cls-4" rx="4.74" ry="4.74" transform="rotate(-180 47.09 196.395)"/><rect width="9.47" height="20.46" x="42.35" y="167.7" class="cls-4" rx="4.74" ry="4.74" transform="rotate(180 47.09 177.925)"/><rect width="9.47" height="20.46" x="42.35" y="217.61" class="cls-4" rx="4.74" ry="4.74" transform="rotate(-180 47.09 227.845)"/><rect width="9.47" height="20.46" x="42.35" y="254.55" class="cls-4" rx="4.74" ry="4.74" transform="rotate(-180 47.09 264.785)"/><rect width="9.47" height="9.47" x="59.56" y="230.9" class="cls-4" rx="4.74" ry="4.74"/><rect width="9.47" height="9.47" x="59.56" y="217.92" class="cls-6" rx="4.74" ry="4.74"/><rect width="9.47" height="9.47" x="59.56" y="204.94" class="cls-6" rx="4.74" ry="4.74"/><rect width="9.47" height="9.47" x="59.56" y="191.97" class="cls-4" rx="4.74" ry="4.74"/><rect width="9.47" height="20.46" x="59.56" y="243.87" class="cls-4" rx="4.74" ry="4.74"/><rect width="9.47" height="20.46" x="59.56" y="168" class="cls-4" rx="4.74" ry="4.74"/><rect width="9.47" height="9.47" x="93.98" y="264.06" class="cls-4" rx="4.74" ry="4.74"/><rect width="9.47" height="9.47" x="93.98" y="250.83" class="cls-6" rx="4.74" ry="4.74"/><rect width="9.47" height="9.47" x="93.98" y="237.61" class="cls-4" rx="4.74" ry="4.74"/><rect width="9.47" height="9.47" x="93.98" y="277.28" class="cls-4" rx="4.74" ry="4.74"/><rect width="9.47" height="9.47" x="93.98" y="200.17" class="cls-4" rx="4.74" ry="4.74"/><rect width="9.47" height="20.46" x="93.98" y="213.4" class="cls-4" rx="4.74" ry="4.74"/><rect width="9.47" height="20.46" x="93.98" y="175.96" class="cls-6" rx="4.74" ry="4.74"/><rect width="9.47" height="9.47" x="111.18" y="263.2" class="cls-4" rx="4.74" ry="4.74"/><rect width="9.47" height="9.47" x="111.18" y="250.19" class="cls-6" rx="4.74" ry="4.74"/><rect width="9.47" height="9.47" x="111.18" y="237.19" class="cls-4" rx="4.74" ry="4.74"/><rect width="9.47" height="9.47" x="111.18" y="224.18" class="cls-4" rx="4.74" ry="4.74"/><rect width="9.47" height="9.47" x="111.18" y="187.18" class="cls-4" rx="4.74" ry="4.74"/><rect width="9.47" height="20.46" x="111.18" y="276.21" class="cls-4" rx="4.74" ry="4.74"/><rect width="9.47" height="20.46" x="111.18" y="200.19" class="cls-6" rx="4.74" ry="4.74"/><rect width="9.47" height="20.46" x="111.18" y="162.33" class="cls-6" rx="4.74" ry="4.74"/><rect width="9.47" height="9.47" x="128.39" y="239.08" class="cls-6" rx="4.74" ry="4.74"/><rect width="9.47" height="9.47" x="128.39" y="224.88" class="cls-4" rx="4.74" ry="4.74"/><rect width="9.47" height="9.47" x="128.39" y="210.76" class="cls-4" rx="4.74" ry="4.74"/><rect width="9.47" height="9.47" x="128.39" y="195.96" class="cls-4" rx="4.74" ry="4.74"/><rect width="9.47" height="20.46" x="128.39" y="276.02" class="cls-4" rx="4.74" ry="4.74"/><rect width="9.47" height="20.46" x="128.39" y="252.06" class="cls-4" rx="4.74" ry="4.74"/><rect width="9.47" height="9.47" x="145.6" y="271.22" class="cls-6" rx="4.74" ry="4.74"/><rect width="9.47" height="9.47" x="145.6" y="234.28" class="cls-4" rx="4.74" ry="4.74"/><rect width="9.47" height="9.47" x="145.6" y="221.31" class="cls-6" rx="4.74" ry="4.74"/><rect width="9.47" height="20.46" x="145.6" y="247.26" class="cls-4" rx="4.74" ry="4.74"/><rect width="9.47" height="20.46" x="145.6" y="196.58" class="cls-4" rx="4.74" ry="4.74"/><rect width="9.47" height="9.47" x="162.81" y="210.93" class="cls-6" rx="4.74" ry="4.74" transform="rotate(180 167.545 215.66)"/><rect width="9.47" height="9.47" x="162.81" y="224.59" class="cls-4" rx="4.74" ry="4.74" transform="rotate(180 167.545 229.325)"/><rect width="9.47" height="20.46" x="162.81" y="239.1" class="cls-6" rx="4.74" ry="4.74" transform="rotate(-180 167.545 249.33)"/><rect width="9.47" height="20.46" x="162.81" y="263.06" class="cls-4" rx="4.74" ry="4.74" transform="rotate(-180 167.545 273.295)"/><rect width="9.47" height="20.46" x="162.81" y="162.14" class="cls-6" rx="4.74" ry="4.74" transform="rotate(180 167.545 172.37)"/><rect width="9.47" height="20.46" x="162.81" y="186.1" class="cls-4" rx="4.74" ry="4.74" transform="rotate(-180 167.545 196.335)"/><rect width="9.47" height="9.47" x="180.01" y="238.86" class="cls-4" rx="4.74" ry="4.74" transform="rotate(-180 184.75 243.6)"/><rect width="9.47" height="9.47" x="180.01" y="252.59" class="cls-4" rx="4.74" ry="4.74" transform="rotate(180 184.75 257.33)"/><rect width="9.47" height="9.47" x="180.01" y="265.57" class="cls-4" rx="4.74" ry="4.74" transform="rotate(-180 184.75 270.305)"/><rect width="9.47" height="9.47" x="180.01" y="162.23" class="cls-4" rx="4.74" ry="4.74" transform="rotate(180 184.75 166.97)"/><rect width="9.47" height="9.47" x="180.01" y="199.17" class="cls-4" rx="4.74" ry="4.74" transform="rotate(-180 184.75 203.91)"/><rect width="9.47" height="20.46" x="180.01" y="175.21" class="cls-6" rx="4.74" ry="4.74" transform="rotate(-180 184.75 185.44)"/><rect width="9.47" height="20.46" x="180.01" y="212.15" class="cls-6" rx="4.74" ry="4.74" transform="rotate(-180 184.75 222.38)"/><rect width="9.47" height="20.46" x="180.01" y="283.1" class="cls-6" rx="4.74" ry="4.74" transform="rotate(180 184.75 293.335)"/><rect width="9.47" height="9.47" x="231.64" y="215.45" class="cls-4" rx="4.74" ry="4.74"/><rect width="9.47" height="9.47" x="231.64" y="226.55" rx="4.74" ry="4.74" style="opacity:.05;fill:#00d1a7"/><rect width="9.47" height="9.47" x="231.64" y="200.51" class="cls-4" rx="4.74" ry="4.74"/><rect width="9.47" height="20.46" x="231.64" y="252.39" class="cls-4" rx="4.74" ry="4.74"/><rect width="9.47" height="20.46" x="231.64" y="176.55" class="cls-4" rx="4.74" ry="4.74"/><rect width="9.47" height="20.46" x="231.64" y="228.42" class="cls-4" rx="4.74" ry="4.74"/><rect width="9.47" height="9.47" x="197.22" y="235.64" class="cls-6" rx="4.74" ry="4.74" transform="rotate(180 201.96 240.38)"/><rect width="9.47" height="9.47" x="197.22" y="272.58" class="cls-4" rx="4.74" ry="4.74" transform="rotate(-180 201.96 277.32)"/><rect width="9.47" height="9.47" x="197.22" y="222.66" class="cls-4" rx="4.74" ry="4.74" transform="rotate(-180 201.96 227.4)"/><rect width="9.47" height="20.46" x="197.22" y="198.7" class="cls-6" rx="4.74" ry="4.74" transform="rotate(-180 201.96 208.93)"/><rect width="9.47" height="20.46" x="197.22" y="248.62" class="cls-4" rx="4.74" ry="4.74" transform="rotate(-180 201.96 258.85)"/><rect width="9.47" height="20.46" x="197.22" y="173.84" class="cls-4" rx="4.74" ry="4.74" transform="rotate(180 201.96 184.07)"/><rect width="9.47" height="9.47" x="214.43" y="277.62" class="cls-4" rx="4.74" ry="4.74"/><rect width="9.47" height="9.47" x="214.43" y="264.65" class="cls-4" rx="4.74" ry="4.74"/><rect width="9.47" height="9.47" x="214.43" y="190.77" class="cls-4" rx="4.74" ry="4.74"/><rect width="9.47" height="9.47" x="214.43" y="203.74" class="cls-4" rx="4.74" ry="4.74"/><rect width="9.47" height="20.46" x="214.43" y="240.68" class="cls-4" rx="4.74" ry="4.74"/><rect width="9.47" height="20.46" x="214.43" y="216.72" class="cls-6" rx="4.74" ry="4.74"/><rect width="9.47" height="9.47" x="248.84" y="201.75" class="cls-6" rx="4.74" ry="4.74"/><rect width="9.47" height="9.47" x="248.84" y="188.53" class="cls-4" rx="4.74" ry="4.74"/><rect width="9.47" height="9.47" x="248.84" y="175.31" class="cls-4" rx="4.74" ry="4.74"/><rect width="9.47" height="9.47" x="248.84" y="252.41" class="cls-4" rx="4.74" ry="4.74"/><rect width="9.47" height="9.47" x="248.84" y="214.98" class="cls-4" rx="4.74" ry="4.74"/><rect width="9.47" height="9.47" x="248.84" y="265.64" class="cls-4" rx="4.74" ry="4.74"/><rect width="9.47" height="20.46" x="248.84" y="228.2" class="cls-6" rx="4.74" ry="4.74"/><rect width="9.47" height="9.47" x="266.05" y="194.31" class="cls-4" rx="4.74" ry="4.74" transform="rotate(-180 270.79 199.05)"/><rect width="9.47" height="9.47" x="266.05" y="207.32" class="cls-4" rx="4.74" ry="4.74" transform="rotate(-180 270.79 212.055)"/><rect width="9.47" height="9.47" x="266.05" y="220.33" class="cls-4" rx="4.74" ry="4.74" transform="rotate(180 270.79 225.065)"/><rect width="9.47" height="9.47" x="266.05" y="233.33" class="cls-4" rx="4.74" ry="4.74" transform="rotate(180 270.79 238.07)"/><rect width="9.47" height="9.47" x="266.05" y="270.33" class="cls-4" rx="4.74" ry="4.74" transform="rotate(-180 270.79 275.07)"/><rect width="9.47" height="20.46" x="266.05" y="170.32" class="cls-6" rx="4.74" ry="4.74" transform="rotate(180 270.79 180.55)"/><rect width="9.47" height="20.46" x="266.05" y="246.34" class="cls-4" rx="4.74" ry="4.74" transform="rotate(180 270.79 256.57)"/></g></g><path d="M186.4 126.79h-28.36c-1.46 0-2.65-1.18-2.65-2.65V95.78c0-1.46-1.18-2.65-2.65-2.65h-22.03c-1.46 0-2.65 1.18-2.65 2.65v28.36c0 1.46-1.18 2.65-2.65 2.65H97.05c-1.46 0-2.65 1.18-2.65 2.65v22.03c0 1.46 1.18 2.65 2.65 2.65h28.36c1.46 0 2.65 1.18 2.65 2.65v28.36c0 1.46 1.18 2.65 2.65 2.65h22.03c1.46 0 2.65-1.18 2.65-2.65v-28.36c0-1.46 1.18-2.65 2.65-2.65h28.36c1.46 0 2.65-1.18 2.65-2.65v-22.03c0-1.46-1.18-2.65-2.65-2.65Z" style="fill:#fff"/></svg>
