<svg xmlns="http://www.w3.org/2000/svg" width="1024" height="1024"><path fill="#F6FBFC" d="M0 0h1024v1024H0V0Z"/><path fill="#01314C" d="M510.188 142.75c.88-.005 1.762-.01 2.67-.017 17.06-.078 33.81 1.321 50.642 4.142l3.173.524c3.111.521 6.22 1.057 9.327 1.601l2.737.477c11.898 2.113 23.38 5.073 34.884 8.763 2.236.714 4.478 1.405 6.723 2.092C666.906 174.876 711.144 200.958 747 234l2.309 2.031c10.528 9.267 20.7 19.192 29.691 29.969l2.398 2.77c33.333 38.597 63.713 86.753 74.899 137.164.554 2.417 1.17 4.779 1.844 7.164 3.351 11.948 5.506 23.926 7.404 36.182.43 2.571.948 5.106 1.498 7.654 16.117 79.04-9.41 174.144-52.918 240.128A945.957 945.957 0 0 1 810 703l-2.742 4.02a258.606 258.606 0 0 1-19.798 25.31 208.204 208.204 0 0 0-4.144 4.912c-6.298 7.628-13.074 14.697-20.066 21.696l-2.69 2.691c-5.03 4.989-10.17 9.775-15.56 14.371-1.045.912-2.09 1.825-3.133 2.738-7.1 6.109-14.418 11.678-22.105 17.024a317.677 317.677 0 0 0-5.23 3.77c-8.226 6.018-16.7 11.385-25.532 16.468l-1.961 1.137A599.562 599.562 0 0 1 673 825l-1.892 1.027C648.531 838.13 623.671 846.359 599 853l2.475.118c73.82 3.55 73.82 3.55 107.753 8.03 5.71.746 11.427 1.336 17.159 1.887 7.41.717 14.76 1.597 22.113 2.778l3.24.511c3.421.548 6.841 1.109 10.26 1.676l3.666.607c38.167 6.39 38.167 6.39 46.334 13.393 2.179 3.268 2.722 4.21 2 8-7.165 7.73-17.911 9.686-27.875 11.625l-3.027.617c-6.062 1.22-12.14 2.279-18.242 3.27-2.598.444-5.17.951-7.75 1.492-6.223 1.27-12.502 2.09-18.793 2.933l-3.913.53c-2.609.352-5.218.703-7.828 1.053-2.989.402-5.976.813-8.963 1.23-13.568 1.866-27.181 3.334-40.797 4.813l-2.96.321a4555.01 4555.01 0 0 1-30.758 3.237l-2.413.248c-6.41.643-12.818 1.021-19.251 1.354-3.833.219-7.643.577-11.463.957-80.215 7.775-161.86 3.352-241.967-3.68l-2.642-.232c-5.586-.492-11.172-.997-16.756-1.515a3020.25 3020.25 0 0 0-5.322-.489c-10.166-.93-20.24-2.135-30.328-3.704-6.283-.975-12.565-1.726-18.89-2.372-21.18-2.33-42.553-5.453-63.312-10.313l-2.374-.55c-7.145-1.788-15.23-4.358-20.376-9.825-1.125-2.938-1.125-2.938-1-6 5.487-7.434 14.445-9.673 23.063-11.5l2.884-.632c9.543-2.051 19.146-3.775 28.78-5.336 2.448-.398 4.892-.807 7.337-1.224 13.196-2.21 26.438-3.613 39.748-4.933 3.235-.324 6.47-.65 9.704-.979 1.99-.201 3.982-.4 5.973-.597l2.725-.274 2.37-.235c1.794-.215 3.58-.49 5.362-.794 2.914-.473 5.766-.757 8.71-.96l3.302-.234 3.542-.24 3.717-.257c2.603-.18 5.205-.358 7.807-.534 3.907-.266 7.812-.538 11.718-.81C388.49 854.444 403.23 853.583 418 853l-3.453-1.006c-2.937-.856-5.872-1.72-8.805-2.592-2.824-.838-5.65-1.659-8.484-2.46-22.39-6.573-45.154-16.014-65.258-27.942l-3.344-1.953C319.55 811.687 310.71 805.983 302 800l-1.81-1.238C287.625 790.116 276.249 780.287 265 770l-3.262-2.945c-5.274-4.786-10.37-9.531-14.941-15.008-2.27-2.585-4.713-4.955-7.172-7.36-5.318-5.232-9.987-10.852-14.625-16.687l-4.25-5.063C201.53 699.364 184.632 672.558 174 644a224.104 224.104 0 0 0-2-4.5c-12.72-28.333-19.92-58.783-24-89.5l-.546-3.91c-1.535-11.699-1.73-23.289-1.66-35.077.019-3.141.02-6.282.02-9.423.025-14.44.163-28.867 2.499-43.152l.397-2.506c.28-1.751.565-3.502.853-5.252.443-2.715.86-5.433 1.277-8.153 10.207-64.636 40.353-129.037 85.562-176.754a203.82 203.82 0 0 0 5.805-6.488c4.308-4.946 8.904-9.588 13.543-14.223l2.691-2.688c5.934-5.879 11.955-11.262 18.559-16.374a1906.16 1906.16 0 0 0 5.563-4.75A267.112 267.112 0 0 1 322 194l2.14-1.222C368.58 167.471 415.28 151.67 466 145l2.973-.402c13.688-1.771 27.435-1.796 41.214-1.848Z"/><path fill="#00749A" d="M510.188 142.75c.88-.005 1.762-.01 2.67-.017 17.06-.078 33.81 1.321 50.642 4.142l3.173.524c3.111.521 6.22 1.057 9.327 1.601l2.737.477c11.898 2.113 23.38 5.073 34.884 8.763 2.236.714 4.478 1.405 6.723 2.092C666.906 174.876 711.144 200.958 747 234l2.309 2.031c10.528 9.267 20.7 19.192 29.691 29.969l2.398 2.77c33.333 38.597 63.713 86.753 74.899 137.164.554 2.417 1.17 4.779 1.844 7.164 3.351 11.948 5.506 23.926 7.404 36.182.43 2.571.948 5.106 1.498 7.654 16.117 79.04-9.41 174.144-52.918 240.128A945.957 945.957 0 0 1 810 703l-2.742 4.02a258.606 258.606 0 0 1-19.798 25.31 208.204 208.204 0 0 0-4.144 4.912c-6.298 7.628-13.074 14.697-20.066 21.696l-2.69 2.691c-5.03 4.989-10.17 9.775-15.56 14.371-1.045.912-2.09 1.825-3.133 2.738-7.1 6.109-14.418 11.678-22.105 17.024a317.677 317.677 0 0 0-5.23 3.77c-8.226 6.018-16.7 11.385-25.532 16.468l-1.961 1.137A599.562 599.562 0 0 1 673 825l-1.892 1.027C648.531 838.13 623.671 846.359 599 853l2.475.118c73.82 3.55 73.82 3.55 107.753 8.03 5.71.746 11.427 1.336 17.159 1.887 7.41.717 14.76 1.597 22.113 2.778l3.24.511c3.421.548 6.841 1.109 10.26 1.676l3.666.607c38.167 6.39 38.167 6.39 46.334 13.393 2.179 3.268 2.722 4.21 2 8-7.165 7.73-17.911 9.686-27.875 11.625l-3.027.617c-6.062 1.22-12.14 2.279-18.242 3.27-2.598.444-5.17.951-7.75 1.492-6.223 1.27-12.502 2.09-18.793 2.933l-3.913.53c-2.609.352-5.218.703-7.828 1.053-2.989.402-5.976.813-8.963 1.23-13.568 1.866-27.181 3.334-40.797 4.813l-2.96.321a4555.01 4555.01 0 0 1-30.758 3.237l-2.413.248c-6.41.643-12.818 1.021-19.251 1.354-3.833.219-7.643.577-11.463.957-80.215 7.775-161.86 3.352-241.967-3.68l-2.642-.232c-5.586-.492-11.172-.997-16.756-1.515a3020.25 3020.25 0 0 0-5.322-.489c-10.166-.93-20.24-2.135-30.328-3.704-6.283-.975-12.565-1.726-18.89-2.372-21.18-2.33-42.553-5.453-63.312-10.313l-2.374-.55c-7.145-1.788-15.23-4.358-20.376-9.825-1.125-2.938-1.125-2.938-1-6 5.487-7.434 14.445-9.673 23.063-11.5l2.884-.632c9.543-2.051 19.146-3.775 28.78-5.336 2.448-.398 4.892-.807 7.337-1.224 13.196-2.21 26.438-3.613 39.748-4.933 3.235-.324 6.47-.65 9.704-.979 1.99-.201 3.982-.4 5.973-.597l2.725-.274 2.37-.235c1.794-.215 3.58-.49 5.362-.794 2.914-.473 5.766-.757 8.71-.96l3.302-.234 3.542-.24 3.717-.257c2.603-.18 5.205-.358 7.807-.534 3.907-.266 7.812-.538 11.718-.81C388.49 854.444 403.23 853.583 418 853l-3.453-1.006c-2.937-.856-5.872-1.72-8.805-2.592-2.824-.838-5.65-1.659-8.484-2.46-22.39-6.573-45.154-16.014-65.258-27.942l-3.344-1.953C319.55 811.687 310.71 805.983 302 800l-1.81-1.238C287.625 790.116 276.249 780.287 265 770l-3.262-2.945c-5.274-4.786-10.37-9.531-14.941-15.008-2.27-2.585-4.713-4.955-7.172-7.36-5.318-5.232-9.987-10.852-14.625-16.687l-4.25-5.063C201.53 699.364 184.632 672.558 174 644a224.104 224.104 0 0 0-2-4.5c-12.72-28.333-19.92-58.783-24-89.5l-.546-3.91c-1.535-11.699-1.73-23.289-1.66-35.077.019-3.141.02-6.282.02-9.423.025-14.44.163-28.867 2.499-43.152l.397-2.506c.28-1.751.565-3.502.853-5.252.443-2.715.86-5.433 1.277-8.153 10.207-64.636 40.353-129.037 85.562-176.754a203.82 203.82 0 0 0 5.805-6.488c4.308-4.946 8.904-9.588 13.543-14.223l2.691-2.688c5.934-5.879 11.955-11.262 18.559-16.374a1906.16 1906.16 0 0 0 5.563-4.75A267.112 267.112 0 0 1 322 194l2.14-1.222C368.58 167.471 415.28 151.67 466 145l2.973-.402c13.688-1.771 27.435-1.796 41.214-1.848ZM479 197l-1.828 1.262C468.779 204.557 462.59 215.676 461 226c-.986 11.126.442 23.6 7 33l2.035 1.855c3.984 3.633 6.132 6.265 6.48 11.72.07 4.493-.167 8.945-.515 13.425h-10l-.8-2.66c-4.419-12.305-13.495-21.791-25.2-27.34-13.738-5.258-26.357-5.76-40 0-13.955 7.224-21.839 17.275-27.375 31.813-2.03 6.425-3.76 15.915-.625 22.187h-13l.25-2.813c-.069-11.373-7.538-22.504-15.063-30.5-10.955-10.32-23.793-14.03-38.546-13.906C292.847 263.55 282.19 269.29 273 278c-10.19 12.053-12.976 24.216-12.222 39.69 1.453 15.109 11.509 25.395 22.378 34.88 1.842 1.571 1.842 1.571 4.407 2.413C290 357 290 357 290.508 358.929c.241 2.603.316 5.164.332 7.778l.05 2.904c.026 2.028.037 4.056.037 6.085.01 3.097.101 6.186.196 9.283.206 14.418.206 14.418-3.248 18.585-2.586 1.508-5.045 2.485-7.875 3.436-7.502 6.355-14.239 15.417-15.245 25.437-.25 5.537-.07 11.032.245 16.563l-1.922.867c-2.494 1.36-3.042 2.544-4.078 5.133h-2v2l-1.813.813c-2.198 1.193-3.469 2.397-5.187 4.187-3.171 2.82-5.563 3.48-9.75 4-11.468 1.487-20.193 8.025-27.25 17-7.165 11.379-9.959 22.794-7.387 36.195 3.17 10.695 10.053 20.56 19.387 26.805 4.291 2.149 8.565 3.7 13.264 4.684 4.552 1.603 6.834 3.767 10.107 7.199l1.719 1.74a770.697 770.697 0 0 1 5.347 5.502c1.22 1.245 2.44 2.488 3.663 3.73 2.98 3.036 5.944 6.086 8.9 9.145l-1.076 2.772c-4.689 12.497-6.44 24.553-.924 37.228l1.148 2.664C271.59 629.778 278.91 638.276 288 643h2c.063 2.625.063 2.625-1 6-1.719 1.383-1.719 1.383-3.938 2.75-11.887 7.36-19.876 18.239-23.765 31.68-.439 3.797-.481 7.562-.485 11.383l-.037 2.33c-.037 14.72 6.915 26.405 17.05 36.712 3.742 3.406 7.355 5.458 12.175 7.145l2.29.844c12.934 4.22 27.197 3.342 39.71-1.844 7.43-3.924 7.43-3.924 13-10 3.111-1.037 5.495-1.2 8.762-1.316l3.388-.127 3.538-.12 3.572-.13c2.913-.107 5.826-.209 8.74-.307l.425 2.32c1.753 8.172 6.658 15.872 12.575 21.68l2.563 2.563c8.684 6.97 18.809 9.62 29.625 9.687l2.462.063c12.428.079 22.946-5.324 31.885-13.684 6.171-6.582 10.812-14.006 13.465-22.629l11-1c-.006 3.69-.054 7.373-.125 11.063l.008 3.146c-.135 5.307-.34 8.834-3.938 12.912l-1.663 1.572c-1.515 1.24-1.515 1.24-1.282 3.307h-2c-.817 1.748-1.628 3.499-2.438 5.25l-1.37 2.953c-3.958 9.29-3.783 22.51-.567 31.985 5.082 11.582 15.412 21.631 26.688 27.25 11.76 4.244 27.555 2.774 38.687-2.438 10.995-6.134 19.43-15.534 23.113-27.668 2.984-12.72 1.991-26.543-4.574-37.848-2.844-4.489-2.844-4.489-6.68-8.097-2.975-3.82-2.536-7.927-2.609-12.637l-.09-2.836c-.07-2.304-.117-4.61-.16-6.914h13l.5 3.25c2.833 11.435 12.607 21.761 22.5 27.75 11.661 5.808 24.83 7.182 37.5 3.875 12.064-4.423 20.983-11.971 27.5-22.875l1.484-2.473c2.74-4.47 2.74-4.47 3.516-9.527l26 1 1 3c9.846 9.31 21.818 12.649 35.095 12.473 11.855-.533 22.717-5.005 31.592-12.848L740 729l1.71-1.844c10.464-11.478 13.396-24 12.821-39.328C753.523 675.191 746.513 664.12 737 656c-2.642-1.61-5.33-3.064-8.059-4.52C727 650 727 650 726.152 647.863c-.277-2.238-.277-2.238-.152-5.863l2.684-.738c8.534-3.247 15.71-11.552 19.464-19.778 2.834-6.873 4.07-12.58 4.102-20.047l.012-2.43c-.055-5.617-.802-10.52-2.703-15.843-.688-2.664-.55-3.588.441-6.164a87.721 87.721 0 0 1 5.11-5.719l1.583-1.635a642.68 642.68 0 0 1 3.35-3.41c1.681-1.71 3.328-3.45 4.977-5.193 6.181-6.363 11.127-10.362 20.071-12.284 7.728-2.016 14.52-8.21 18.909-14.759 4.65-8.133 7.381-15.356 7.313-24.75l-.018-2.422c-.214-10.423-3.089-17.492-9.295-25.828l-1.75-2.625c-6.445-6.803-15.585-12.818-25.102-13.613-2.399-.01-4.757.055-7.148.238l-.59-1.64c-1.353-2.264-2.432-3.36-4.414-5.032-10.096-8.616-10.096-8.616-10.933-14.351-.167-2.73-.114-5.443-.06-8.176-.009-9.529-4.66-17.013-11.003-23.801-4.7-4.677-8.75-8.646-15-11-.085-6.3-.1-12.596-.067-18.896.003-2.142-.01-4.284-.04-6.425-.039-3.085-.02-6.165.01-9.25l-.075-2.888c.14-6.542.14-6.542 3.104-9.411 2.297-1.532 4.636-2.826 7.068-4.13 9.03-6.512 15.048-15.952 17.563-26.828 2.148-15.578.477-29.458-8.977-42.442L743 279h-2l-.719-1.781C736.213 270.173 726.46 266.332 719 264c-10.981-2.836-23.928-2.173-34 3l-2.605 1.32c-10.696 5.922-19.427 15.166-23.497 26.84-1.382 5.214-1.898 9.37-1.898 14.84h-13l.176-3.918c.511-16.026-2.233-27.257-13.278-39.195-7.904-8.102-17.247-13.803-28.703-14.077-10.044-.445-15.18-4.009-21.945-11.193-1.126-1.246-2.25-2.494-3.375-3.742a863.11 863.11 0 0 0-3.492-3.672c-5.154-5.425-10.142-10.995-15.036-16.656a119.257 119.257 0 0 0-5.16-5.547l-1.707-1.75c-1.412-1.465-1.412-1.465-3.48-1.25l-.766-1.73c-5.49-10.097-16.363-15.685-26.898-19.145-15.208-3.567-29.017-.555-41.336 8.875Z"/><path fill="#47C1B9" d="M510.188 142.75c.88-.005 1.762-.01 2.67-.017 17.06-.078 33.81 1.321 50.642 4.142l3.173.524c3.111.521 6.22 1.057 9.327 1.601l2.737.477c11.898 2.113 23.38 5.073 34.884 8.763 2.236.714 4.478 1.405 6.723 2.092C666.906 174.876 711.144 200.958 747 234l2.309 2.031c10.528 9.267 20.7 19.192 29.691 29.969l2.398 2.77c30.398 35.198 53.01 74.756 69.164 118.293l1.09 2.906.977 2.691.877 2.395C854 397 854 397 853 399c-6.97-7.433-13.924-14.872-20.719-22.465a1110.37 1110.37 0 0 0-8.406-9.223l-1.548-1.683a229.389 229.389 0 0 0-8.577-8.817C811 354 811 354 811 352h-2c-1.46-1.464-1.46-1.464-3.152-3.492-3.685-4.33-7.51-8.497-11.41-12.633l-2.088-2.219c-5.129-5.424-10.374-10.718-15.681-15.968a169.05 169.05 0 0 1-10.024-10.825c-2.707-3.067-5.66-5.886-8.57-8.758-2.542-2.579-4.79-5.298-7.075-8.105l-2.063-2.063c-2.186-2.186-4.102-4.447-5.937-6.937v-2h-2a2017.779 2017.779 0 0 1-3.39-3.5c-10.698-9.97-23.03-12.007-37.087-11.777-5.728.238-10.431 1.658-15.523 4.277l-2.64 1.355c-10.332 5.77-18.58 14.427-22.43 25.81-1.258 4.918-2.095 9.823-2.93 14.835h-13l-.043-3.918c-.376-16.874-3.728-28.906-15.957-41.082-7.63-6.554-15.62-10.96-25.78-11.164-10.237-.428-15.44-4.28-22.325-11.574-1.174-1.295-2.348-2.59-3.52-3.887a935.43 935.43 0 0 0-3.637-3.816c-5.251-5.517-10.375-11.15-15.286-16.973-2.29-2.502-4.894-4.614-7.48-6.8-2.026-1.835-3.767-3.765-5.534-5.849-9.296-10.82-20.307-16.023-34.532-17.19-11.997-.444-21.42 3.067-30.906 10.253l-3.063 2.063c-8.044 6.965-13.286 18.591-14.21 29.023-.315 10.173 1.304 21.377 7.273 29.914l2.035 1.82c4.115 3.702 6.142 6.397 6.48 11.977.07 4.752-.168 9.465-.515 14.203-4.003.515-7.202.439-11-1-2.961-3.807-4.918-7.94-7.057-12.242-5.478-10.212-15.064-15.727-25.755-19.133-12.798-3.296-24.43-2.208-36.204 3.953-12.768 7.745-19.77 17.855-24.304 32.074-1.3 6.4-.977 12.854-.68 19.348h-13l-1.125-6.313c-3.001-13.798-10.589-24.761-22.375-32.625-11.203-6.668-23.684-8.756-36.578-6.53-12.8 3.289-23.097 9.75-30.418 20.91-6.813 11.59-8.993 25.355-5.633 38.535 2.21 6.653 5.04 11.984 9.676 17.253C274 343 274 343 275 346a69.23 69.23 0 0 0 4 2 143.103 143.103 0 0 1 4.563 3.5c2.442 1.944 4.837 3.767 7.437 5.5.435 1.864.435 1.864.515 4.155l.107 2.6.058 2.82.066 2.9c.037 2.03.065 4.06.085 6.09.044 3.096.162 6.183.282 9.277.305 14.468.305 14.468-3.472 18.969-2.822 1.76-5.574 2.928-8.641 4.189-7.09 6.112-13.203 14.897-14.267 24.376-.197 3.399-.314 6.772-.244 10.176.007 2.243-.02 4.254-.489 6.448-2.465 2.434-2.465 2.434-5 4l-1 2h-2v2c-1.645 1.656-1.645 1.656-3.813 3.5l-2.144 1.844c-3.645 2.955-5.943 3.898-10.543 4.406-10.943 1.73-19.766 7.49-26.5 16.25-7.097 11.458-9.97 22.735-7.387 36.195 2.982 10.061 9.36 20.113 18.387 25.805 4.298 2.093 8.566 3.704 13.252 4.672 4.637 1.643 6.996 3.932 10.338 7.43l1.786 1.807a833.305 833.305 0 0 1 5.561 5.716 2992.48 2992.48 0 0 0 3.807 3.875c3.099 3.154 6.182 6.323 9.256 9.5l-1.076 2.772c-5.252 14-5.84 26.019.26 39.927 4.761 9.672 12.032 17.622 21.816 22.301.277 2.793.277 2.793 0 6-1.871 1.8-1.871 1.8-4.438 3.313-11.648 7.59-19.36 17.664-23.269 31.12-.433 3.797-.477 7.561-.48 11.38l-.038 2.33c-.03 12.27 4.391 22.442 12.87 31.263C276 730 276 730 276 732l1.625.688c5.201 2.874 9.219 7.139 13.375 11.312a40365.895 40365.895 0 0 0 6.866 6.882c6.835 6.851 13.672 13.7 20.51 20.547 4.131 4.135 8.26 8.272 12.388 12.41 4.004 4.015 8.01 8.028 12.019 12.039 1.52 1.523 3.041 3.046 4.56 4.571a4977.5 4977.5 0 0 0 6.402 6.41l1.873 1.883c3.735 3.726 7.59 7.256 11.592 10.694 2.653 2.318 5.118 4.78 7.603 7.279l1.512 1.517a2829.02 2829.02 0 0 1 4.675 4.706l3.215 3.228c2.598 2.609 5.192 5.22 7.785 7.834-2 1-2 1-4.68.155l-3.41-1.366-1.855-.738a919.59 919.59 0 0 1-5.993-2.426l-2.053-.83C348.4 828.446 324.759 815.636 302 800l-1.81-1.238C287.625 790.116 276.249 780.287 265 770l-3.262-2.945c-5.274-4.786-10.37-9.531-14.941-15.008-2.27-2.585-4.713-4.955-7.172-7.36-5.318-5.232-9.987-10.852-14.625-16.687l-4.25-5.063C201.53 699.364 184.632 672.558 174 644a224.104 224.104 0 0 0-2-4.5c-12.72-28.333-19.92-58.783-24-89.5l-.546-3.91c-1.535-11.699-1.73-23.289-1.66-35.077.019-3.141.02-6.282.02-9.423.025-14.44.163-28.867 2.499-43.152l.397-2.506c.28-1.751.565-3.502.853-5.252.443-2.715.86-5.433 1.277-8.153 10.207-64.636 40.353-129.037 85.562-176.754a203.82 203.82 0 0 0 5.805-6.488c4.308-4.946 8.904-9.588 13.543-14.223l2.691-2.688c5.934-5.879 11.955-11.262 18.559-16.374a1906.16 1906.16 0 0 0 5.563-4.75A267.112 267.112 0 0 1 322 194l2.14-1.222C368.58 167.471 415.28 151.67 466 145l2.973-.402c13.688-1.771 27.435-1.796 41.214-1.848Z"/><path fill="#3EBBB5" d="M433.589 855.461c5.046 1.128 10.156 1.928 15.255 2.774 1.891.315 3.78.639 5.67.963 17.585 2.946 34.777 4.21 52.611 4.177h3.179c18.21-.037 35.734-1.277 53.696-4.375l3.874-.664c12.768-2.2 12.768-2.2 25.442-4.876 2.83-.485 5.298-.48 8.163-.33l3.264.163 3.519.195 3.693.192c2.591.136 5.183.275 7.774.416 3.87.212 7.742.413 11.613.613 22.402 1.177 44.75 2.682 67.033 5.291 3.099.356 6.198.71 9.297 1.063l2.233.255c4.796.546 9.593 1.032 14.4 1.47 12.652 1.155 25.166 3.134 37.695 5.212l3.666.607c38.167 6.39 38.167 6.39 46.334 13.393 2.179 3.268 2.722 4.21 2 8-7.165 7.73-17.911 9.686-27.875 11.625l-3.027.617c-6.062 1.22-12.14 2.279-18.242 3.27-2.598.444-5.17.951-7.75 1.492-6.223 1.27-12.502 2.09-18.794 2.934l-3.912.529c-2.609.352-5.218.703-7.828 1.053-2.989.402-5.976.813-8.963 1.23-13.568 1.866-27.181 3.334-40.797 4.813l-2.96.321a4555.01 4555.01 0 0 1-30.758 3.237l-2.413.248c-6.41.643-12.818 1.021-19.251 1.354-3.833.219-7.643.577-11.463.957-80.215 7.775-161.86 3.352-241.967-3.68l-2.642-.232c-5.586-.492-11.172-.997-16.756-1.515a3020.25 3020.25 0 0 0-5.322-.489c-10.166-.93-20.24-2.135-30.328-3.704-6.283-.975-12.565-1.726-18.89-2.372-21.18-2.33-42.553-5.453-63.312-10.313l-2.374-.55c-7.145-1.788-15.23-4.358-20.376-9.825-1.125-2.937-1.125-2.937-1-6 5.487-7.434 14.445-9.673 23.062-11.5l2.885-.632c9.543-2.051 19.146-3.775 28.78-5.336 2.448-.398 4.892-.807 7.337-1.224 13.196-2.21 26.438-3.613 39.748-4.933 3.235-.324 6.47-.65 9.704-.979 1.99-.201 3.982-.4 5.973-.597l2.725-.274 2.37-.235c1.795-.215 3.583-.49 5.365-.794 2.897-.471 5.732-.756 8.66-.96l3.273-.234 3.513-.24 3.695-.257c2.59-.18 5.18-.358 7.77-.534 3.873-.266 7.746-.537 11.619-.81 12.146-.844 24.294-1.614 36.458-2.156l3.078-.15c7.304-.295 13.47.545 20.574 2.306Z"/><path fill="#FCFCFD" d="M532.953 472.086c8.775 7.487 14.938 16.272 16.047 27.914.855 11.423-.96 22.392-8.508 31.367L539 533l-2.313 2.625c-9.484 8.382-19.347 12.033-32.097 11.594-11.963-1.01-21.516-6.322-29.59-15.219-4.961-6.851-8.288-13.534-9-22l-.246-2.867c-.51-11.912 3.39-22.192 11.246-31.133 15.748-15 38.303-16.38 55.953-3.914Z"/><path fill="#FBFCFC" d="M518.145 215.809c4.153 2.667 7.65 6.783 9.855 11.191.725 7.31.873 13.431-3.629 19.477-1.651 1.835-3.201 3.326-5.371 4.523h-2v117h-18V252l-5-2c-4.372-4.63-7.131-9.345-7.563-15.75.24-6.91 3.455-12.237 8.356-16.988 6.786-4.968 15.786-4.682 23.352-1.453Z"/><path fill="#F4F9FA" d="M611.086 390.031c6.976 3.864 11.756 9.747 15.351 16.781 1.849 10.475.576 18.267-5.437 27.188-4.824 5.472-10.788 8.828-18 10-1.852.09-3.708.13-5.563.125l-2.816.008C592 444 592 444 590.194 443.153c-2.487-.426-2.487-.426-4.88 2.044a199.46 199.46 0 0 0-3.033 3.21l-1.635 1.692a662.187 662.187 0 0 0-5.146 5.401 858.443 858.443 0 0 1-6.781 7.094l-1.557 1.682c-1.476 1.527-1.476 1.527-4.162 3.724-4.29-.144-6.427-3.073-9.25-6.012-2.507-2.848-4.631-5.842-6.75-8.988 4.034-4.854 8.21-9.188 13.016-13.277A114.405 114.405 0 0 0 569 431l2.203-2.129c2.922-4.668 1.978-9.32 1.64-14.658-.271-7.115 1.374-12.03 6.087-17.42l1.945-1.606 1.93-1.644c8.223-5.78 18.747-6.698 28.28-3.512Z"/><path fill="#F3F8F9" d="M430 392c6.403 4.186 10.595 10.785 13 18 .094 1.602.13 3.208.125 4.813l.008 2.519C443 420 443 420 442.093 422.867c-.107 3.614.288 4.052 2.555 6.684a195.086 195.086 0 0 0 3.727 3.762l1.94 1.993c2.81 2.874 5.674 5.69 8.552 8.495l2.383 2.324 2.078 1.945c1.89 2.182 2.75 4.212 3.672 6.93a587.537 587.537 0 0 1-5.75 6.063c-.539.58-1.078 1.16-1.633 1.76-1.601 1.65-1.601 1.65-4.617 4.177-3.096-.032-4.167-1.151-6.47-3.24-.92-.969-1.834-1.944-2.74-2.924l-3.024-3.149a689.006 689.006 0 0 1-4.706-4.99 417.908 417.908 0 0 0-4.583-4.799l-1.393-1.53c-1.487-1.598-1.487-1.598-4.084-3.368-3.165.06-3.165.06-6 1-9.587.793-17.535-1.075-25.14-7.113-6.64-6.738-9.15-13.86-9.18-23.068.136-7.247 2.054-11.263 6.757-16.569L397 395l2.313-2.125c9.848-6.871 20.268-6.356 30.687-.875Z"/><path fill="#FBFCFC" d="M616.75 576.617c7.527 4.626 12.162 10.794 14.25 19.383 1.232 8.242-.838 15.46-5.578 22.266-5.49 6.675-12.13 10.873-20.82 12.062-7.98.503-14.067-1.797-20.602-6.328-6.867-6.49-9.988-14.105-10.5-23.438.249-7.733 3.599-13.793 8.75-19.437 9.518-8.62 22.869-9.98 34.5-4.508Z"/><path fill="#FBFCFD" d="M428.434 578.227c5.53 3.821 10.122 9.045 11.566 15.773.948 9.595.37 18.124-5.508 26.027-5.885 6.474-12.153 9.076-20.786 9.495-6.238.112-11.995.14-17.07-3.909L395 624l-1.918-1.832c-5.712-5.972-8.19-11.41-8.394-19.668.263-8.289 1.873-14.984 7.882-21.098 10.545-9.622 23.466-10.208 35.864-3.175Z"/><path fill="#43BAB4" d="M714.48 420.621c5.944 2.587 9.674 7.687 12.52 13.379.96 7.674.226 13.42-4.148 19.867-3.717 4.28-8.246 7.134-13.852 8.133-2.082.067-4.167.085-6.25.063l-3.266-.028L697 462l-.223 1.672c-1.072 3.21-2.94 5.09-5.215 7.578l-2.433 2.703C687 476 687 476 685 476l-.755 1.743c-1.424 2.581-3.06 4.3-5.16 6.366l-2.304 2.286-2.406 2.355-2.43 2.402c-1.977 1.954-3.959 3.903-5.945 5.848-4.004-1.837-6.72-4.491-9.75-7.625l-1.535-1.563A897.139 897.139 0 0 1 651 484c1.305-2.901 2.661-4.881 4.981-7.05l1.82-1.72c.645-.605 1.291-1.21 1.957-1.832a3145.99 3145.99 0 0 0 4.082-3.925 640.822 640.822 0 0 1 6.452-6.12 465.715 465.715 0 0 0 6.216-5.955l1.97-1.794c2.635-2.603 4.348-4.384 4.883-8.128.014-2.619.014-2.619-.237-5.097-.323-6.188 2.376-11.128 6.251-15.754 6.87-7.623 15.316-8.455 25.105-6.004Z"/><path fill="#21A09E" d="M499 570h18v36h33c-3.73 4.352-7.251 8.35-11.313 12.313-3.26 3.037-3.26 3.037-5.687 6.687h-2l-.766 1.672c-3.67 6.922-8.245 11.573-15.699 14.066-6.4 1.34-11.564 1.054-17.535-1.738-11.7-8.258-22.004-19.928-31-31v-2h33v-36Z"/><path fill="#46BDB5" d="M319.402 420.887C324.897 424.06 329.974 428.92 332 435c-.185 2.375-.373 4.75-.563 7.125-.156 4.172.017 7.117 2.54 10.617 2.579 2.252 5.245 4.258 8.023 6.258 1.257 1.2 2.49 2.427 3.688 3.688a86.315 86.315 0 0 0 6.812 6.25c4.848 4.07 8.992 8.8 12.5 14.062a1136.259 1136.259 0 0 1-5.25 5.875l-1.488 1.684c-2.53 2.8-4.687 5.096-8.262 6.441l-2.5-2.719c-7.278-7.875-14.693-15.573-22.344-23.088l-1.953-1.927c-.57-.56-1.141-1.119-1.73-1.695C320 466 320 466 318 463c-2.588-.398-2.588-.398-5.563-.375-7.16-.454-12.353-2.288-17.289-7.629-4.54-5.843-5.63-10.46-5.55-17.851.766-5.994 3.887-9.716 8.125-13.81 6.15-4.673 14.527-5.088 21.68-2.448Z"/><path fill="#FBFCFC" d="M258.375 490.992c3.544 2.098 6.6 4.338 8.625 8.008v2l2.148-.047c6.708-.14 13.415-.247 20.124-.316 3.449-.036 6.896-.085 10.344-.165 3.972-.091 7.943-.125 11.915-.156l3.72-.11c5.927-.002 9.81.18 14.403 4.15A99.99 99.99 0 0 1 333 508l1.71 1.61C336 511 336 511 336 512.876c-1.469 3.122-3.375 4.899-6 7.125-2.99.606-2.99.606-6.347.58l-3.823.01-2.028-.029c-2.107-.03-4.212-.029-6.32-.02-5.231.016-10.462-.02-15.693-.056-4.426-.028-8.85-.036-13.275-.017-2.069 0-4.136-.028-6.205-.059-7.559-.22-7.559-.22-14.069 3.042L260 526c-4.612 2.69-9.817 2.861-15 2-5.683-2.408-10.025-5.964-12.406-11.73-1.6-6.119-1.722-12.025 1.406-17.645 5.886-7.99 14.82-11.624 24.375-7.633ZM774.188 491.625c4.95 2.762 7.83 6.13 10.125 11.375 1.347 5.878.86 9.777-1.973 15.04A27.702 27.702 0 0 1 770 528c-5.947.756-10.916.39-16-3l-1.774-2.082c-2.948-2.54-4.606-2.395-8.46-2.353l-3.823.009-2.035.032c-2.111.031-4.22.035-6.332.03-6-.006-12 .035-18 .1-3.674.037-7.348.041-11.023.025-1.396 0-2.792.014-4.188.042-10.956.215-10.956.215-14.591-2.412-1.499-1.733-2.696-3.375-3.774-5.391 2.315-5.06 5.341-8.901 10-12 4.516-1.054 8.86-.91 13.477-.754 1.961.009 3.923.018 5.885.024 3.422.022 6.842.098 10.263.168 4.093.079 8.185.147 12.279.163 2.542.013 5.085.058 7.626.14 6.132.207 6.132.207 11.501-2.273 1.602-1.826 1.602-1.826 2.791-3.77 4.47-6.447 13.977-5.943 20.365-3.073Z"/><path fill="#F5F8F9" d="m403 340 1.563.813L407 342l3.125 1.563c4.46 1.924 9.072 2.157 13.875 2.437-.813 1.938-.813 1.938-2 4l-3 1v2c-1.398 1.34-1.398 1.34-3.375 2.938-3.508 2.968-6.573 6.127-9.625 9.562-3.552 3.99-7.173 7.589-11.309 10.965-1.801 1.531-1.801 1.531-3.289 3.726L390 382h-2l-.726 1.612c-3.23 6.053-6.995 11.302-13.274 14.388-9.04 2.012-18.569 1.128-27.75.75-2.547-.06-5.094-.115-7.64-.164A993.005 993.005 0 0 1 320 398v-20l9.64.203c3.119.024 6.236.028 9.354.029 2.15.012 4.299.045 6.447.1 14.134.757 14.134.757 26.18-5.468a71.962 71.962 0 0 0 4.003-4.795c2.567-3.315 5.103-5.476 8.376-8.069 3.515-3.34 6.626-6.88 9.668-10.645L395 348h2l1-3h2l1-3h2v-2Z"/><path fill="#F8FAFA" d="M611.969 341.211c2.477.962 3.355 2.002 4.968 4.1l1.678 2.113 1.815 2.295c16.884 20.841 16.884 20.841 41.12 29.824 11.207.684 22.32-.268 33.45-1.543v20c-7.47.323-14.936.558-22.412.714-2.538.065-5.075.154-7.611.267-22.153.962-22.153.962-27.695-3.238-2.622-2.594-4.63-5.583-6.696-8.625-3.223-4.305-7.226-7.921-11.07-11.665a4095.22 4095.22 0 0 1-5.079-5.055l-5.187-5.148c-3.456-3.43-6.909-6.862-10.36-10.297l-2.404-2.38-2.188-2.177-1.936-1.92C591 347 591 347 591 346l2.633-.332c5.55-.764 13.381-4.988 18.336-4.457Z"/><path fill="#FBFCFD" d="M499 730h18l-.027 7.664c.015 2.463.042 4.925.07 7.387.013 1.705.014 3.41.002 5.116-.438 9.523-.438 9.523 2.507 18.224 1.753 1.474 3.454 2.504 5.448 3.609 3.541 5.026 3.811 10.047 3 16-1.866 6.288-5.741 10.257-11 14-5 2.5-12.975 1.817-18.27.387-4.742-2.43-8.095-6.86-10.73-11.387-1.647-5.23-1.685-10.05.625-15.063 2.212-4.052 4.898-6.913 8.375-9.937h2v-36Z"/><path fill="#02779A" d="M447 338c6.094 5.045 11.67 10.521 17.25 16.125l2.719 2.707 2.61 2.613c.777.78 1.554 1.558 2.356 2.36 3.95 4.198 5.442 6.327 5.406 12.249l-.001 3.7-.047 3.98a1761.446 1761.446 0 0 1-.087 14.818c-.03 3.653-.044 7.306-.06 10.96-.032 7.163-.083 14.325-.146 21.488l-1.43-1.24-1.89-1.631-1.868-1.615c-1.508-1.26-3.09-2.431-4.687-3.577-2.97-4.104-2.622-7.698-2.84-12.664-.413-4.74-1.937-8.186-4.285-12.273l-1.574-2.75c-5.19-8.582-10.514-14.623-19.426-19.25-3-2-3-2-3.515-4.487-1.087-20.57-1.087-20.57 1.608-25.52 2.756-3.007 6.1-4.67 9.907-5.993Z"/><path fill="#02779C" d="M567 338c1.693.597 3.354 1.284 5 2l3.11 1.219c2.455 1.677 2.861 2.662 3.567 5.602.355 3.666.461 7.246.448 10.929l-.006 3.888c-.396 10.484-.396 10.484-3.533 13.67-3.112 1.895-6.24 3.263-9.586 4.692-8.326 7.31-13.836 17.164-16 28a382.053 382.053 0 0 0-.063 5.5c-.377 6.45-4.102 9.511-8.687 13.7C539 429 539 429 538 429c-.233-8.041-.41-16.08-.518-24.124-.052-3.737-.122-7.47-.236-11.205-.11-3.612-.169-7.221-.195-10.835-.018-1.37-.054-2.741-.108-4.111-.228-5.971-.34-10.768 3.216-15.747 2.502-2.53 5.05-4.776 7.841-6.978 1.274-1.1 2.545-2.204 3.813-3.313l1.675-1.398c2.306-1.966 4.397-4.121 6.512-6.289 1.27-1.272 2.54-2.543 3.813-3.813l1.832-1.832L567 338Z"/><path fill="#FAFBFC" d="M434.625 283.125c5.244 4.013 7.886 8.701 8.89 15.219.4 8.343-1.012 14.283-6.515 20.656-6.222 5.888-12.897 7.44-21.324 7.246-6.723-.618-12.365-4.166-16.676-9.246-4.032-6.972-5.251-13.69-3.41-21.504 2.638-7.962 7.928-13.207 15.348-16.996 9.167-1.497 15.73-.32 23.687 4.625ZM609 282c5.589 3.946 9.57 8.142 11 15 .908 8.12-.348 14.23-5 21-4.19 4.8-9.51 7.55-15.762 8.355-8.13.386-14.657-1.346-20.863-6.777-5.68-6.289-6.952-12.428-6.727-20.64.817-6.827 4.172-11.516 9.352-15.938 9.34-6.466 18.381-6.613 28-1ZM713.453 671.758c1.971.955 3.74 2.008 5.547 3.242l2.688 1.625c4.93 5.063 7.599 10.92 7.875 18-.34 6.678-2.622 11.128-6.938 16.125-6.997 5.998-12.15 7.725-21.254 7.664-6.415-.788-10.368-4.358-14.746-8.851-4.321-6.815-5.79-12.488-4.625-20.563 2.524-7.808 6.944-12.86 13.824-17.133 5.29-2.108 12.246-1.772 17.63-.11Z"/><path fill="#F9FAFB" d="M322.738 291.45c5.69 3.9 9.215 8.954 11.262 15.55.775 6.05-.083 10.569-3 16l-.96 1.813c-3.347 5.505-7.957 8.27-14.04 10.187-7.175 1.15-12.949.436-19.098-3.512-5.26-4.115-9.368-9.437-10.257-16.183-.353-7.452.876-13.254 5.355-19.305 9.075-8.819 19.533-10.795 30.738-4.55Z"/><path fill="#FAFBFC" d="M321.375 673c5.188 2.932 9.315 7.127 11.254 12.86 1.38 7.965 1.35 15.379-3.145 22.273-4.261 5.36-9.697 9.236-16.648 10.152-7.282.288-13.988-1.632-19.45-6.66-5.305-6.217-7.2-12.702-6.796-20.8 1.078-7.424 4.724-11.602 10.312-16.38 7.31-5.036 16.504-5.026 24.473-1.445ZM716.438 290.5c5.147 3.11 8.973 7.806 12 12.938 1.733 7.898.39 14.464-3.438 21.562-4.595 5.537-10.61 9.362-17.797 10.406-7.785.247-12.39-1.189-18.203-6.406-5.107-4.882-7.04-9.83-7.375-16.813.189-6.635 1.966-11.621 6.54-16.492 7.79-7.13 18.073-9.753 28.273-5.195Z"/><path fill="#24A5A4" d="M362 621h2a126.208 126.208 0 0 1 3.25 5.625c4.652 8.057 12.265 18.132 20.75 22.375-1.588 3.94-4.316 6.556-7.305 9.465l-1.577 1.561c-1.66 1.642-3.326 3.277-4.993 4.912-1.66 1.631-3.317 3.264-4.972 4.9a762.876 762.876 0 0 1-3.092 3.039c-2.264 2.233-4.326 4.463-6.284 6.973L358 682h-2l-1.313-3.25c-4.853-9.69-13.944-17.619-22.687-23.75 6.448-7.668 13.284-14.983 20.086-22.336l1.51-1.638c.957-1.037 1.915-2.072 2.875-3.105 2.06-2.233 3.838-4.385 5.529-6.921Z"/><path fill="#42BAB3" d="M605.875 694.938c5.95 3.926 10.913 9.197 13.125 16.062 1.274 7.229-1.005 13.013-5 19-3.746 4.208-8.697 7.6-14.355 8.285-8.158.284-14.074-2.122-20.067-7.629-4.02-4.22-5.801-7.766-5.953-13.656.433-8.677 3.002-14.125 9.375-20 6.596-4.905 15.213-3.916 22.875-2.063Z"/><path fill="#42BAB2" d="M432 697c4.585 4.12 8.622 8.68 9.336 14.953.095 8.033-.384 13.77-5.95 19.793-5.672 5.245-11.212 6.765-18.866 6.559-7.156-.866-11.69-4.834-16.11-10.301-3.62-5.145-4.354-10.876-3.41-17.004 2.704-8.003 7.138-13.258 14.438-17.375 7.502-1.83 13.945-.498 20.562 3.375Z"/><path fill="#21A3A0" d="M652 621c3.93 3.881 7.685 7.889 11.398 11.977a512.305 512.305 0 0 0 8.172 8.777l1.793 1.89a516.794 516.794 0 0 0 3.485 3.635c2.695 2.85 4.426 4.859 5.152 8.721l-2.16 1.617c-8.433 6.56-14.47 13.616-18.84 23.383-2.842-1.293-4.908-2.656-7.116-4.857l-1.759-1.74-1.86-1.872-1.933-1.927a1574.075 1574.075 0 0 1-4.024-4.035 1535.853 1535.853 0 0 0-6.195-6.182 5535.058 5535.058 0 0 1-3.91-3.918l-1.884-1.872C628 650.23 628 650.23 628 648c1.434-1.375 1.434-1.375 3.438-3 8.165-6.968 14.655-15.073 20.562-24Z"/><path fill="#45BAB2" d="M717 581c4.705 2.887 8.017 6.854 10 12 .975 6.734.9 13.342-2.676 19.29-4.868 6.289-10.696 9.7-18.48 11.097-6.762.535-11.629-2.28-16.844-6.387-4.56-5.357-6.604-11.757-6.371-18.824 1.095-6.42 4.253-11.702 9.371-15.676 8.487-5.616 15.761-5.527 25-1.5Z"/><path fill="#48BBB5" d="M318.773 579.906c6.865 3.216 10.98 6.912 14.102 13.907 2.026 6.077 1.014 11.678-1.563 17.437-3.173 5.762-8.16 9.458-14.312 11.75-6.849 1.082-13.05-.535-19-4-4.393-3.904-7.679-8.254-8.371-14.172-.22-11.875-.22-11.875 3.734-17.144 7.331-7.541 14.91-11.209 25.41-7.778Z"/><path fill="#02799B" d="M548 209c3.912 1.594 6.372 4.139 9.313 7.125l2.738 2.758c2.123 2.201 4.131 4.475 6.12 6.797 4.657 5.366 9.723 10.322 14.766 15.32l2.94 2.926c2.372 2.36 4.746 4.718 7.123 7.074-3.03 1.576-5.724 2.455-9.063 3.188C570.553 257.26 561.856 264.53 555 274c-2.034 3.958-3.513 7.787-5 12h-12a493.614 493.614 0 0 1-.313-9.188l-.126-2.619c-.125-6.493-.125-6.493 2.646-9.931L543 262c3.843-4.156 6.19-7.983 7.813-13.375l.634-2.099c3.509-12.65 2.476-25.68-3.447-37.526Z"/><path fill="#44B5B2" d="M517.313 671c4.96 3.691 10.353 8.775 11.687 15 .752 6.862.139 12.344-4 18-4.965 5.41-9.947 7.94-17.313 8.438-5.42-.165-9.506-2.025-13.687-5.438-4.844-5.8-7.397-11.006-7.273-18.594.76-6.694 4.412-11.047 9.492-15.18 6.394-4.403 13.732-4.448 21.094-2.226Z"/><path fill="#2FA6A4" d="M573 501c8.728-.204 17.454-.369 26.184-.466a888.64 888.64 0 0 0 12.16-.213 613.58 613.58 0 0 1 11.749-.175c1.49-.016 2.979-.049 4.468-.098 11.683-.367 11.683-.367 16.186 3.016 1.99 2.221 3.685 4.403 5.253 6.936-2.012 4.18-3.845 7.7-8 10-5.225.848-10.407.699-15.68.586-1.538-.011-3.077-.02-4.615-.026-4.035-.023-8.068-.081-12.103-.148-4.122-.062-8.245-.089-12.368-.119-8.078-.064-16.156-.17-24.234-.293l1-19Z"/><path fill="#FCFDFE" d="m382.513 500.546 1.952-.002c2.122.003 4.242.034 6.363.065 1.474.008 2.948.014 4.422.018 3.874.015 7.747.054 11.62.098 3.955.041 7.91.06 11.864.08 7.756.043 15.51.113 23.266.195l1 19c-8.858.181-17.715.328-26.575.414-4.115.042-8.228.099-12.342.19a711.12 711.12 0 0 1-11.923.155c-1.512.015-3.024.043-4.536.087-11.86.326-11.86.326-16.385-2.68-1.973-1.959-3.659-3.883-5.239-6.166 4.297-5.078 4.297-5.078 6-7l1.7-2.092c3.065-2.543 4.861-2.392 8.813-2.362Z"/><path fill="#4ABCB2" d="M606.219 396.617c6.11 2.656 9.845 7.51 12.781 13.383.917 7.44.514 13.138-4.18 19.152-4.692 4.763-9.197 6.077-15.82 6.41-5.816-.19-9.609-1.806-14-5.562l-1.59-1.355c-3.925-4.577-3.892-9.878-3.793-15.633.746-5.87 3.712-9.463 7.946-13.387 6.023-4.015 11.553-4.984 18.656-3.008Z"/><path fill="#49BEB3" d="M421 396c5.694 2.502 10.489 6.246 13 12 1.28 6.085 2.21 11.947-1.063 17.5-3.414 4.487-7.213 8.472-12.937 9.5-6.226.49-11.755.78-17-3-4.955-4.944-7.137-8.553-7.375-15.688.051-6.057 1.376-9.788 5.375-14.312 6.145-5.695 11.705-7.278 20-6Z"/><path fill="#F8FBFB" d="M563 630c4.587 4.444 8.788 9.202 13 14-3.067 4.469-6.138 8.176-10 12l-2.679 2.679L543 679c-2.683-2.586-4.576-5.275-6.563-8.438l-1.816-2.87A87.497 87.497 0 0 1 531 661c3.911-3.936 7.826-7.869 11.743-11.798 1.332-1.337 2.663-2.674 3.992-4.013 1.914-1.926 3.832-3.849 5.75-5.771l1.793-1.81c2.772-2.772 5.482-5.373 8.722-7.608Z"/><path fill="#29A2A0" d="M451 631c2.858 1.297 4.91 2.664 7.116 4.89l1.759 1.758 1.86 1.891 1.933 1.942c2.032 2.043 4.057 4.094 6.082 6.144 1.378 1.388 2.757 2.777 4.137 4.164 3.376 3.398 6.746 6.803 10.113 10.211-1.33 3.464-2.687 6.153-5 9.063-2.022 2.552-3.63 4.979-5 7.937-3-1.346-5.08-2.835-7.392-5.165l-1.94-1.94-2.059-2.09-2.135-2.144a3014.41 3014.41 0 0 1-6.724-6.786l-4.57-4.598A5904.964 5904.964 0 0 1 438 645c1.558-3.322 3.103-5.203 5.938-7.563 2.46-2.064 4.826-4.13 7.062-6.437Z"/><path fill="#3FB3B1" d="M358 422h11l.75 4.438c1.754 8.577 4.777 14.608 10.86 20.933C382 449 382 449 382 451l1.805.82c2.162 1.162 3.569 2.356 5.32 4.055 8.3 7.18 18.362 8.06 28.875 9.125v11c-23.307 1.935-23.307 1.935-28.547-2.11-2.244-2.578-4.155-5.15-6.045-7.985-2.805-3.795-6.333-6.95-9.72-10.217-4.375-4.282-8.576-8.584-12.45-13.33-1.215-1.497-1.215-1.497-3.238-2.358v-18Z"/><path fill="#F7FAFB" d="m684 450 .688 3.25c1.893 5.41 4.69 6.893 9.625 9.5L697 464c-6.642 9.122-6.642 9.122-10 12h-2l-.755 1.743c-1.424 2.581-3.06 4.3-5.16 6.366l-2.304 2.286-2.406 2.355-2.43 2.402c-1.977 1.954-3.959 3.903-5.945 5.848-4.004-1.837-6.72-4.491-9.75-7.625l-1.535-1.563A897.139 897.139 0 0 1 651 484c1.312-2.898 2.716-4.966 4.965-7.208.597-.6 1.195-1.2 1.81-1.82l1.948-1.925 2.002-2c1.394-1.392 2.79-2.78 4.188-4.166a2094.88 2094.88 0 0 0 6.433-6.412c1.354-1.35 2.709-2.699 4.064-4.047l1.954-1.95C682.884 450 682.884 450 684 450Z"/><path fill="#F9FCFC" d="M332 451c4.321 2.303 7.515 5.314 10.875 8.813 3.21 3.285 6.378 6.523 9.938 9.437 4.757 3.93 8.77 8.625 12.187 13.75a1136.259 1136.259 0 0 1-5.25 5.875l-1.488 1.684c-2.53 2.8-4.687 5.096-8.262 6.441l-2.5-2.719a4359.194 4359.194 0 0 0-3.5-3.781l-1.868-2.017a353.16 353.16 0 0 0-10.624-10.936l-2.215-2.178a630.005 630.005 0 0 0-4.313-4.176l-1.972-1.927-1.761-1.695C320 466 320 466 320 463l3.25-1.125c4.016-1.707 5.665-4.025 7.75-7.875l1-3Z"/><path fill="#12929E" d="M646 422h11c.108 2.897.187 5.79.25 8.688l.102 2.474c.066 4.11.034 6.236-2.235 9.776L653 445l-2.125 2.313C649 449 649 449 647 449l-.72 1.709c-1.564 2.8-3.462 4.698-5.745 6.951l-2.674 2.654-2.798 2.748-2.788 2.76c-1.708 1.69-3.418 3.38-5.13 5.065-2.095 2-2.095 2-3.64 3.878-2.093 1.718-3.494 1.58-6.173 1.528l-2.705-.03-2.814-.075-2.85-.042c-2.321-.035-4.642-.089-6.963-.146v-12l5.75-.625c13.197-2.078 22.653-8.949 31.395-18.79 4.627-6.449 6.255-14.78 6.855-22.585Z"/><path fill="#F8FAFB" d="M663.93 529.27c3.438 1.213 5.656 3.953 8.148 6.515l1.732 1.745c1.82 1.837 3.63 3.685 5.44 5.533l3.703 3.744c3.024 3.056 6.038 6.122 9.047 9.193-1.719 3.753-3.636 5.547-6.937 8.063-2.857 2.191-5.59 4.316-8.063 6.937-8.595-3.596-15.064-13.037-21-20a957991325.352 957991325.352 0 0 1-7-8c3.128-3.739 6.302-7.433 9.625-11l1.664-1.812C662 529 662 529 663.93 529.27Z"/><path fill="#FBFCFD" d="M499 395h18v46h-18v-46Z"/><path fill="#F6F9FA" d="M350 529c3.373 1.124 4.151 2.073 6.375 4.75A128.07 128.07 0 0 0 365 543c-1.315 2.918-2.716 4.95-5.012 7.172l-1.787 1.753-1.889 1.825c-4.574 4.47-8.959 8.924-12.882 13.992C342 569 342 569 338 569c-2.656-1.68-2.656-1.68-5.5-3.875-3.082-2.362-5.948-4.533-9.5-6.125 1.35-2.986 2.876-5.163 5.125-7.54l1.879-1.995 1.996-2.09 2.03-2.145A624.6 624.6 0 0 1 350 529Z"/><path fill="#F5F8F9" d="M561 544c2.932 1.321 4.987 2.746 7.234 5.04l1.739 1.757 1.777 1.828 1.824 1.852c1.48 1.503 2.954 3.012 4.426 4.523-1.659 4.325-4.871 7.094-8.125 10.25l-1.707 1.68A1077.693 1077.693 0 0 1 564 575c-3.826-1.575-6.245-4.01-9.125-6.938l-2.633-2.652c-4.256-4.575-4.256-4.575-4.21-7.277 1.43-3.15 3.882-5.063 6.468-7.258 3.744-3.025 3.744-3.025 6.5-6.875Z"/><path fill="#F4F8F9" d="M452 545c3.994 1.62 6.796 4.393 9.813 7.375l1.56 1.46c1.459 1.438 1.459 1.438 3.627 4.165-.322 3.158-1.497 4.907-3.617 7.2-.525.568-1.05 1.137-1.59 1.724l-1.668 1.764-1.645 1.798c-4.088 4.383-4.088 4.383-7.48 5.514l-1.285-1.504A212.216 212.216 0 0 0 437 561c3.172-6.787 9.418-11.194 15-16Z"/><path fill="#F1F4F5" d="M425 649h1v26h-16v-24l10.84-.684c3.02.035 3.02.035 4.16-1.316Z"/><path fill="#1F8F9E" d="m391.094 544.546 3.761.063 2.005.018a467.3 467.3 0 0 1 6.328.123c1.431.02 2.863.038 4.294.055 3.507.044 7.012.113 10.518.195v3l-3.078.297C396 550.279 382.66 556.332 370 571c-3.346 4.756-5.925 9.572-8 15h-2c-1.982-2.569-3.063-4.114-2.828-7.406 1.008-3.16 2.385-4.62 4.766-6.907l2.152-2.113C366 568 366 568 368 568l.79-1.78c1.287-2.362 2.656-3.88 4.581-5.751l1.99-1.957 2.077-2.012c1.355-1.32 2.708-2.643 4.058-3.969l1.818-1.763c1.773-1.724 1.773-1.724 2.977-3.964C388 545 388 545 391.094 544.546Z"/><path fill="#2D9E9C" d="m284.75 540.75 2.113.055c1.713.047 3.425.118 5.137.195 1.227 14.195 1.227 14.195-1.781 18.621-1.999 1.693-3.93 3.112-6.219 4.379-4.325-1.659-7.094-4.871-10.25-8.125l-1.68-1.707A1077.693 1077.693 0 0 1 268 550l5-5 1.828-2.297c3.138-2.46 6.12-2.14 9.922-1.953Z"/><path fill="#44B0AA" d="m590 650 15 1v23h-15v-24Z"/><path fill="#2396A7" d="M596 545c29.201-2.082 29.201-2.082 35.227 2.39 2.807 2.835 4.763 6.177 6.773 9.61 2.05 2.325 2.05 2.325 4.188 4.313l1.906 1.886c1.982 1.872 4.023 3.653 6.093 5.426 3.354 2.877 6.097 5.895 8.813 9.375l-4 7c-2.74-2.426-4.165-5.001-5.813-8.25-7.205-13.36-18.66-21.932-32.984-26.664-6.6-1.898-13.375-2.068-20.203-2.086v-3Z"/><path fill="#33A4A5" d="M664 334a71.798 71.798 0 0 1 2.625 4.563c4.06 7.009 9.352 11.487 16.375 15.437v1c-4.04.204-8.08.328-12.125.438l-3.46.177c-8.238.168-8.238.168-11.594-2.064-1.687-1.827-2.897-3.239-3.821-5.551.479-4.1 2.7-6.254 5.438-9.25l2.433-2.703C662 334 662 334 664 334Z"/><path fill="#07849F" d="m227 546 6 2 2.078.554c5.971 1.701 9.478 4.175 13.707 8.645l1.778 1.803a678.725 678.725 0 0 1 5.5 5.686c1.258 1.288 2.518 2.575 3.779 3.86 3.069 3.136 6.118 6.289 9.158 9.452l-3 8-1.629-2.156c-2.55-3.06-5.344-5.701-8.308-8.344-7.88-7.077-7.88-7.077-11.063-10.5v-2h-2a258.236 258.236 0 0 1-3.438-4.215c-2.319-2.65-4.988-4.83-7.695-7.074-1.916-1.756-3.375-3.59-4.867-5.711Z"/><path fill="#36AAA2" d="M352 335c3.668 1.503 5.69 3.637 8.25 6.625l2.14 2.477L364 346c-1.544 3.473-3.355 6.259-6 9-2.84.568-2.84.568-6.078.488l-3.516-.049-3.656-.127-3.703-.068A619.282 619.282 0 0 1 332 355l2.258-1.8c6.88-5.518 12.541-11.033 17.742-18.2Z"/><path fill="#2F9D98" d="M726 542c13.24-.92 13.24-.92 17.555 1.336C745.438 545 745.438 545 748 548a1462.101 1462.101 0 0 1-13 15c-6.463-2.334-6.463-2.334-9-5-.296-2.87-.38-5.338-.25-8.188l.055-2.271c.047-1.848.119-3.694.195-5.541Z"/><path fill="#299CA0" d="M640 280c4.692 2.42 7.732 5.68 11.188 9.563l3.167 3.503L657 296l2 2c-.35 4.067-1.231 7.985-2 12h-13l-.113-4.023c-.343-13.27-.343-13.27-3.887-25.977Z"/><path fill="#28414F" d="M688 498h60l1 3-2.186-.016c-6.826-.042-13.651-.046-20.477-.007a759.58 759.58 0 0 1-10.526-.008c-4.042-.034-8.081-.003-12.124.031l-3.785-.059c-6.372.105-10.054.458-14.632 5.122l-1.806 2.222L682 510h-2v-3h3l2-4h2l1-5Z"/><path fill="#071D32" d="M610 338h4l1 3a1049.33 1049.33 0 0 0 5 4v2l1.668.672c3.082 1.755 5.182 4.029 7.644 6.578 4.06 4.157 8.224 8.03 12.688 11.75 1.688 1.469 1.688 1.469 3 3v3l1.875.875C649 374 649 374 651 376c2.06.33 2.06.33 4.45.319l2.79.06 3.018.035 3.085.059c3.26.06 6.521.106 9.782.152l6.621.117c5.418.098 10.836.178 16.254.258v21h-1v-20l-8.98 1.3c-16.315 1.812-33.086 3.651-46.62-7.124-10.038-8.88-18.837-19.098-27.071-29.651-1.272-1.655-1.272-1.655-3.329-2.525v-2Z"/><path fill="#087C9B" d="M468.652 314.684c2.785.003 5.568.152 8.348.316v20l-6-4v-2l-4-2v-2l-3-1c-1.313-2.625-1.024-3.912-.25-6.75 2.25-2.25 2.25-2.25 4.902-2.566Z"/><path fill="#0786A1" d="M538 315c7.364-.433 7.364-.433 11 0 2.313 2.25 2.313 2.25 3 5-1.375 4.091-4.546 6.807-7.563 9.75l-1.537 1.535C539.14 335 539.14 335 538 335v-20Z"/><path fill="#08889F" d="m394 460 3.563 1.375c6.616 2.237 13.53 2.852 20.437 3.625v11c-7.217.49-7.217.49-11-1.875-2-2.125-2-2.125-2-4.125l-1.766-.777c-2.431-1.33-4.051-2.807-5.984-4.786l-1.86-1.878C394 461 394 461 394 460Z"/><path fill="#62B8B6" d="M644 920v1l-2.114.152c-3.316.24-6.632.48-9.948.723l-3.721.271c-6.68.494-13.353 1.035-20.022 1.66-20.03 1.865-40.086 2.398-60.195 2.194v-1c13.47-1.262 26.895-2.18 40.419-2.603 6.94-.237 13.8-.74 20.706-1.46 11.622-1.201 23.203-1.137 34.875-.937Z"/><path fill="#0A2436" d="M680 514c.69.81 1.378 1.62 2.088 2.456 5.199 4.292 12.108 3.272 18.498 3.251 1.426.013 2.853.028 4.279.046 3.738.04 7.476.05 11.215.054 3.821.01 7.642.047 11.463.082 7.486.064 14.971.097 22.457.111v2c-8.388.14-16.776.246-25.166.31-3.896.032-7.79.075-11.686.143-3.76.065-7.52.1-11.282.116-1.433.011-2.867.033-4.3.065-11.208.244-11.208.244-14.585-1.94C681.146 518.59 680 516.846 680 514Z"/><path fill="#61B9B5" d="M442.075 922.216c9.31.926 18.626 1.203 27.976 1.442 6.053.163 11.958.441 17.949 1.342v1c-27.42.609-54.653-1.15-82-3v-1c12.26-1.217 23.848-1.075 36.075.216Z"/><path fill="#228E9E" d="M640.715 560.57c3.3 2.065 6.015 4.647 8.847 7.305l1.749 1.605c2.87 2.668 5.476 5.26 7.689 8.52l-4 7c-2.74-2.426-4.165-5.001-5.813-8.25-3.281-6.171-7.258-10.865-12.187-15.75 2-1 2-1 3.715-.43Z"/><path fill="#001C2F" d="M490 247c2.968 1.378 5.575 2.788 8 5 .492 2.18.492 2.18.481 4.765l.017 2.97-.044 3.254.002 3.43c-.003 3.75-.034 7.5-.065 11.249-.008 2.596-.014 5.193-.018 7.79-.013 6.14-.045 12.281-.085 18.422-.045 6.992-.067 13.983-.087 20.975-.042 14.382-.112 28.763-.201 43.145h-1l.001-1.785c.007-14.33-.019-28.66-.081-42.99-.03-6.93-.048-13.86-.04-20.79.008-6.685-.016-13.37-.059-20.055a927.1 927.1 0 0 1-.001-7.66c.012-3.57-.013-7.139-.047-10.71l.037-3.214c-.047-2.735-.124-5.148-.81-7.796-2.87-2.625-2.87-2.625-6-4v-2Z"/><path fill="#4CA9A1" d="m683 440 .313 1.938L684 444l3 1 .688 3.063c1.38 5.33 4.723 9.006 9.312 11.937 4.034.917 7.873 1.11 12 1v1h-12l-1 2a181.464 181.464 0 0 1-3.75-1.688l-2.11-.949c-2.846-1.812-4.342-3.493-6.14-6.363-.44-2.726-.693-5.088-.75-7.813l-.09-2.1c-.07-1.694-.117-3.39-.16-5.087Z"/><path fill="#64BBB8" d="M597.511 852.925c1.536.071 3.071.155 4.606.247l2.523.127c2.746.14 5.49.295 8.235.451l5.687.299c3.893.204 7.786.415 11.678.632 4.58.255 9.16.5 13.74.738 4.048.21 8.097.427 12.145.643l2.28.121c14.49.774 14.49.774 21.595 1.817v1c-6.752.131-13.428-.123-20.165-.574-5.362-.333-10.723-.529-16.093-.68l-2.225-.063c-3.735-.103-7.47-.2-11.205-.29l-4.203-.112-3.782-.092c-2.901-.165-5.494-.593-8.327-1.189a138.73 138.73 0 0 0-5.3-.316l-2.96-.127-3.053-.12-3.11-.13c-2.526-.106-5.051-.208-7.577-.307 2-2 2-2 5.511-2.075Z"/><path fill="#1F93A9" d="M738 464c2.964 2.808 5.445 5.183 7 9-2.855 2.775-4.287 3.963-8.332 4.172l-3.48-.422-3.52-.39c-.88-.12-1.76-.238-2.668-.36l2.125-2.063c3.154-3.145 6.014-6.526 8.875-9.937Z"/><path fill="#13698A" d="M643 696h14v9h-11c-3-5.625-3-5.625-3-9Z"/><path fill="#59B6AF" d="M296 910c2.563.142 5.125.288 7.688.438l2.185.119c3.808.226 7.385.677 11.127 1.443 2.165.15 4.332.272 6.5.375 6.67.416 13.255 1.153 19.875 2.063l2.83.37 2.63.376 2.362.33L353 916l1 2a384.764 384.764 0 0 1-35.483-3.102c-2.57-.343-5.14-.669-7.712-.994-1.644-.216-3.287-.432-4.93-.65l-2.316-.29c-5.33-.734-5.33-.734-7.559-2.964Z"/><path fill="#0D2636" d="M531 471c4.76.438 6.598 2.204 9.688 5.75l2.324 2.61c1.897 2.519 2.871 4.723 3.988 7.64l2 1c2.997 8.659 3.046 19.144 1 28h-1l-.088-1.92c-.825-16.046-1.77-28.159-14.178-39.557L533 473l-2-2Z"/><path fill="#087E9F" d="M359 697h15l-2 7h-13v-7Z"/><path fill="#2D9FA6" d="m369 569 2 1-1.46 2.23-1.915 2.957-1.898 2.918c-1.547 2.593-2.702 5.064-3.727 7.895h-2c-2.023-2.622-3.02-4.212-2.938-7.563 1.677-4.358 4.435-6.349 8.563-8.25L369 569Z"/><path fill="#D5F1F3" d="m309.625 578.938 2.477.027L314 579v2l-2.598.594C303.385 583.69 298.484 585.897 294 593c-1.866 3.563-2.446 7.027-3 11h-1c-.582-6.309-.36-10.915 3.363-16.176 4.475-4.988 9.455-8.984 16.262-8.886Z"/><path fill="#D7EFF1" d="M600 694v1l-2.45.586-3.237.789-3.2.773c-5.378 1.2-5.378 1.2-9.238 4.664L581 704l-1.438 2.188c-2.092 3.767-3.3 7.704-4.562 11.812h-1c.03-8.097 1.224-13.197 7-19l1.531-1.602c5.171-4.537 10.917-3.882 17.469-3.398Z"/><path fill="#50AEA7" d="M278 467c1.085.914 2.168 1.832 3.25 2.75.603.51 1.207 1.02 1.828 1.547 2.059 1.824 3.994 3.741 5.922 5.703a304.93 304.93 0 0 1-6.313.25l-3.55.14C276 477 276 477 274.082 474.985L273 473l5-6Z"/><path fill="#33A6A8" d="m328 448 2 1-1 8h-2v2h-2v2c-4.353.84-8.444 1.108-12.875 1.063l-3.492-.028L306 462v-1l14-1 1-4c1.438-2.25 1.438-2.25 3-4h2v-2h2v-2Z"/><path fill="#63B9B3" d="M334 816a523.49 523.49 0 0 1 5 4c1.657.377 3.323.72 5 1l1 2c1.786 1.071 1.786 1.071 3.973 2.059l2.478 1.17 2.611 1.208 2.53 1.198A178.49 178.49 0 0 0 372 835v2c-7.246-1.934-13.834-4.582-20.563-7.875-.88-.422-1.762-.843-2.67-1.277-16.27-7.853-16.27-7.853-17.767-10.848l3-1Z"/><path fill="#062233" d="m568 653 2 1a563.897 563.897 0 0 1-3.375 4l-1.898 2.25L563 662h-2l-.688 1.688c-1.688 2.974-3.779 5.032-6.312 7.312h-2l-.688 1.688c-1.688 2.974-3.779 5.032-6.312 7.312h-2c1.584-3.909 4.266-6.524 7.227-9.422l1.538-1.53c1.615-1.604 3.238-3.201 4.86-4.798l3.297-3.27A3171.83 3171.83 0 0 1 568 653Z"/><path fill="#11789D" d="M538 367h1v57l5-1a317.62 317.62 0 0 1-5 6h-1v-62Z"/><path fill="#59B7B0" d="M732 865c11.149.494 21.995 1.742 33 3.563A2574.946 2574.946 0 0 1 780 871v.999c-2.98-.115-5.958-.242-8.938-.375l-2.517-.094c-4.909-.229-9.457-.85-14.23-2.005-4.25-.966-8.566-1.531-12.878-2.151l-2.767-.406c-2.223-.326-4.446-.649-6.67-.969v-1Z"/><path fill="#CFEBEE" d="M313 420c-3 2-3 2-6.188 2.688-5.443 1.479-10.001 5.381-12.949 10.152-1.464 3.264-2.328 6.632-2.863 10.16h-1c-.64-6.728.092-10.53 4.168-15.98 5.539-6.106 10.692-7.868 18.832-7.02Z"/><path fill="#CDEBED" d="M421 694v1l-1.977.516c-9.048 2.362-9.048 2.362-15.425 8.824-1.28 2.525-2.453 5.072-3.598 7.66a349.393 349.393 0 0 1-2 4c-.519-5.808.006-9.3 3.395-14.102 5.799-6.857 10.654-8.889 19.605-7.898Z"/><path fill="#08283C" d="M512 668v1l-1.906.262c-7.62 1.25-13.111 3.598-18.469 9.238-3.667 5.642-4.139 10.907-4.625 17.5h-1c-.081-2.397-.14-4.79-.188-7.188l-.076-2.04c-.064-4.43.395-7.328 3.264-10.772h3v-2h2v-2h2v-2c5.487-1.868 10.222-2.236 16-2Z"/><path fill="#5FB9B3" d="M546 145c8.59.55 17.016 1.669 25.503 3.102 2.021.34 4.044.667 6.067.994l3.899.65 3.513.584c2.67.593 4.666 1.308 7.018 2.67l-1.95-.184c-7.344-.68-14.694-1.266-22.05-1.816v-1l-2.781-.367c-6.526-.891-12.874-1.856-19.219-3.633v-1Z"/><path fill="#D4F0F2" d="M707 579a99.69 99.69 0 0 1-6.367 3.008c-7.555 3.365-11.573 7.497-15.008 14.992l-.625 2h-1c-.838-5.448 1.085-8.601 4.168-12.875 5.398-6.261 10.716-7.97 18.832-7.125Z"/><path fill="#052332" d="M611 390c5.787 1.27 9.46 4.378 13 9 .7 2.227.7 2.227 1 4h2c1.797 6.931 3.34 13.98 1 21h-2l.14-2.746c.278-9.365-.84-15.246-5.952-23.004-2.805-2.885-5.88-4.96-9.188-7.25v-1Z"/><path fill="#5FB9B7" d="M328 860c-3.593 3.437-6.714 3.445-11.563 3.625-5.292.174-5.292.174-10.437 1.375a81.459 81.459 0 0 1-5.063.188l-2.66.042C296 865 296 865 294 863c4.166-.508 8.333-1.005 12.5-1.5l3.555-.434c6.027-.71 11.876-1.246 17.945-1.066Z"/><path fill="#D8F0F2" d="M510 670c-1.945.992-3.878 1.95-5.895 2.79-6.897 3.005-11.672 7.721-14.543 14.71L489 690h-1c-.46-5.746.325-8.551 4-13 5.979-5.787 9.855-7.271 18-7Z"/><path fill="#0F2839" d="M672 535c3.852 1.57 6.117 4.05 9 7a285.51 285.51 0 0 0 5.547 4.473c1.706 1.793 2.059 3.114 2.453 5.527h4l1 4c-3 0-3 0-5.085-1.712l-2.364-2.374-2.569-2.57-2.67-2.719-2.705-2.695C672 537.267 672 537.267 672 535Z"/><path fill="#D5F4F9" d="M870 508h1c.025 4.093.043 8.187.055 12.28.005 1.393.012 2.786.02 4.179.013 2 .018 4.001.023 6.002l.016 3.65C871 537 871 537 870 539c-.23 2.204-.41 4.414-.563 6.625l-.253 3.602L869 552h-2c.866-14.676 1.938-29.337 3-44Z"/><path fill="#56B4B5" d="M375 279c1.247 3.74.528 4.611-.938 8.188-2.723 7.626-2.426 14.841-2.062 22.812h-13l1-4v2h9l.113-3.148c.803-18.226.803-18.226 5.887-25.852Z"/><path fill="#2D92A2" d="M596 545h31l1 2-16-1v2h-16v-3Z"/><path fill="#57B8BA" d="M290 357h1c.123 6.211.214 12.422.275 18.634.025 2.114.059 4.227.102 6.34.06 3.037.09 6.072.111 9.108l.078 2.87c.002 2.451-.034 4.655-.566 7.048-2.45 2.158-3.74 3-7 3v-2l1.938-.563c2.406-1.323 2.406-1.323 2.671-4.492.414-4.179.614-8.308.707-12.504l.063-2.391c.065-2.496.124-4.992.183-7.488l.131-5.107c.107-4.152.208-8.303.307-12.455Z"/><path fill="#D4F1F2" d="M706 420c-2.622 1.748-4.94 2.832-7.813 4.063-4.969 2.423-7.294 5.216-10.03 9.949C687 436 687 436 685 438c.126-6.03 2.035-8.932 6.176-13.266 4.942-4.699 8.219-5.07 14.824-4.734Z"/><path fill="#68BDB7" d="M705 202c7.028 4.302 13.695 8.917 20.25 13.91 3.203 2.434 6.461 4.773 9.75 7.09l-3 1-2-1v-2l-2.813-.813c-2.945-1.097-4.337-1.72-6.187-4.187v-2l-2.75-.75c-3.396-1.306-4.81-2.64-7.25-5.25l-3-1v-2h-3v-3Z"/><path fill="#CEF3F3" d="M376 839c4.525 1.506 9.05 3.015 13.57 4.535l2.278.764 4.578 1.539A269.225 269.225 0 0 0 410 850l-1 2-12-3v-2l-2.508.188c-4.284-.23-7.465-1.51-11.367-3.188l-2.086-.867A596.13 596.13 0 0 1 376 841v-2Z"/><path fill="#0B7493" d="m545 260 2 4c-5.75 4-5.75 4-8 4v17h10v-4h2l-1 5h-12a493.614 493.614 0 0 1-.313-9.188l-.126-2.619c-.088-4.564-.11-6.508 2.834-10.181L543 262l2-2Z"/><path fill="#0E2934" d="M610 338h4l1 3a1049.33 1049.33 0 0 0 5 4v2l1.766.773c2.448 1.344 4.051 2.845 5.984 4.852l1.86 1.914L631 356l-3 1-1.437-1.453c-2.143-2.164-4.29-4.324-6.438-6.485l-2.262-2.287-2.168-2.177-2-2.016c-1.622-1.663-1.622-1.663-3.695-2.582v-2Z"/><path fill="#07889A" d="m394 460 1.793.621C399.837 462 403.769 463.318 408 464l-1 1.813c-1.208 2.24-1.208 2.24-1 5.187h2l-1 2-2-1v-2l-1.766-.777c-2.431-1.33-4.051-2.807-5.984-4.786l-1.86-1.878C394 461 394 461 394 460Z"/><path fill="#C9F1F1" d="M679 917v1l-2.59.402-3.347.535-3.34.528c-2.627.253-2.627.253-3.723 1.535a83.431 83.431 0 0 1-4.91.098l-2.998-.01-3.154-.025-3.167-.014c-2.59-.012-5.18-.028-7.771-.049v-1c4.52-.506 9.041-1.004 13.563-1.5l3.869-.434 3.76-.41 3.443-.38c3.47-.285 6.885-.322 10.365-.276Z"/><path fill="#198E95" d="m641 442 2 2c-12.044 14.131-12.044 14.131-19 17-2.258-.36-2.258-.36-4-1l1.871-.996C629.57 454.68 636.067 449.399 641 442Z"/><path fill="#2B939F" d="M390 545h28v3h-12v-1l-16-1v-1Z"/><path fill="#09253B" d="M585 447v3c-1.863 1.719-1.863 1.719-4.313 3.5-5.519 3.833-5.519 3.833-8.687 9.5-3.063 1.188-3.063 1.188-6 2 13.3-16.1 13.3-16.1 19-18Z"/><path fill="#0F2B3F" d="M439 611h1c-.875 6.75-.875 6.75-2 9l-1.875.813c-2.368 1.069-2.368 1.069-3.5 3.812L431 627c-3.188.313-3.188.313-6 0l2.125-1.563c4.936-4.184 8.648-8.833 11.875-14.437Z"/><path fill="#05678A" d="M556 348h2c-.813 1.938-.813 1.938-2 4l-3 1-1 2-1 2-3 1-.813 1.75c-1.738 3.295-4.263 4.962-7.187 7.25l-2-1c9.538-9.71 9.538-9.71 14.063-13.5 2.933-2.167 2.933-2.167 3.937-4.5Z"/><path fill="#03768E" d="M339 792c3 0 3 0 5.188 1.875C346 796 346 796 346 798h2v2h2c1.621 1.645 1.621 1.645 3.438 3.813 2.107 2.498 4.214 4.911 6.562 7.187l-1 2c-2.851-2.827-5.7-5.657-8.545-8.49l-2.91-2.89c-1.392-1.38-2.781-2.764-4.17-4.147l-2.54-2.524C339 793 339 793 339 792Z"/><path fill="#072839" d="m600 691-1 2c-1.75.203-1.75.203-4 .25-5.797.5-9.49 3.283-14 6.75l-2.262 1.695L577 703l2-6 5-1v-2h2v-2c4.763-.953 9.167-1.083 14-1Z"/><path fill="#66BDB8" d="M843 370c3.098 4.646 4.73 9.852 6.688 15.063l1.298 3.376 1.213 3.221 1.12 2.957C854 397 854 397 853 399c-2.123-2.123-2.515-3.139-3.375-5.938a316.27 316.27 0 0 0-3.75-11.062l-1.008-2.813c-.677-2.129-.677-2.129-1.867-3.187-.04-2-.043-4 0-6Z"/><path fill="#D3F6F3" d="m383.875 852.813 2.184-.038c4.127-.011 6.153.331 9.941 2.225l-22 1v-2c3.128-1.564 6.444-1.184 9.875-1.188Z"/><path fill="#03243A" d="M685 477c0 4.731-3 7.512-6 11-5.096 5-5.096 5-8 5 1.659-4.325 4.871-7.094 8.125-10.25l1.707-1.68c1.385-1.361 2.776-2.716 4.168-4.07Z"/><path fill="#0E6B8B" d="M466 727h11c.108 3.772.187 7.54.25 11.313l.102 3.248.039 3.115.063 2.872C477 750 477 750 474.976 751.833L473 753l1-5h2v-20h-10v-1Z"/><path fill="#53B5B0" d="M599 695a63.223 63.223 0 0 1-7.375 3.25c-4.146 1.72-6.553 4.535-9.625 7.75h-2l-1 4-2-1c5.21-8.298 11.418-14.992 22-14Z"/><path fill="#183548" d="M618 310c1.125 1.688 1.125 1.688 2 4-.762 3.125-1.612 4.648-4 6.813-2 1.187-2 1.187-4 1.187v2h-5l2.188-1.563c4.047-3.508 7.11-7.329 8.812-12.437Z"/><path fill="#06273A" d="M688 498h13v1l-2.336.078-3.039.172-3.023.14c-2.718.316-2.718.316-3.766 2.454L688 504c-1.438 1.703-1.438 1.703-3 3.25l-1.563 1.578C682 510 682 510 680 510v-3h3l2-4h2l1-5Z"/><path fill="#50AAAC" d="M330 447c2 3 2 3 1.938 5.813-1.212 4.117-2.84 6.224-5.938 9.187-2.363 1.028-4.447 1.5-7 2v-3h6v-2h2v-2h2l-.035-1.934c-.01-.826-.018-1.652-.027-2.503l-.036-2.497C329 448 329 448 330 447Z"/><path fill="#042336" d="M630 592h2c1.107 3.566 1.133 6.905 1.125 10.625l.008 3.477C633 609 633 609 632 611h-2v-19Z"/><path fill="#043646" d="M486 193c-1.393 3.314-2.886 4.94-5.813 7l-2.144 1.54L476 203a505.082 505.082 0 0 0-5 4c1.401-4.696 3.704-6.8 7.5-9.813l2.969-2.394C484 193 484 193 486 193Z"/><path fill="#5CB5AF" d="M305 801h4v2l3.25.75c3.846 1.282 5.106 2.333 7.75 5.25 2.133 1.235 2.133 1.235 4 2l-2 2a3086.695 3086.695 0 0 1-8.5-5.438l-2.457-1.564-2.324-1.494-2.158-1.38L305 802v-1Z"/><path fill="#0A283B" d="M414 344h13c-1 5-1 5-3.563 6.813L421 352l3-6h-10v-2Z"/><path fill="#0B708B" d="M750 289c2.815 2.27 3.904 3.595 4.746 7.16.294 4.438.363 8.831.317 13.277l-.014 2.506c-.012 2.02-.03 4.038-.049 6.057h-1l-.113-3.043c-.408-8.993-1.514-17.24-3.887-25.957Z"/><path fill="#052736" d="M490 247c2.974 1.38 5.603 2.745 8 5 .454 2.544.454 2.544.39 5.543l-.038 3.252-.102 3.392-.055 3.428c-.047 2.796-.113 5.59-.195 8.385h-1l.003-2.048a606.81 606.81 0 0 0-.128-9.202l.008-3.223c.098-5.455.098-5.455-2.277-10.084-1.823-1.203-1.823-1.203-4.606-2.443v-2Z"/><path fill="#CDEFF3" d="M859 418c2.855 1.427 3 3.01 4 6 1.54 7.335 2.254 14.517 2 22h-1l-.586-3.586C862.071 434.246 860.7 426.103 859 418Z"/><path fill="#2B909A" d="M646 422h11v17h-1v-16c-6.66.208-6.66.208-8.938 3.063L646 428v-6Z"/><path fill="#54BAB3" d="M248 253c0 4.053-1.582 5.822-4 9l-3 1-1 3c-2.063.688-2.063.688-4 1 3.658-5.111 7.446-9.663 12-14Z"/><path fill="#1B374D" d="M575 643h2c.392 2.664.406 4.392-1.113 6.668-1.25 1.483-2.566 2.912-3.887 4.332l-4-2 2.375-2.25c2.19-2.294 3.452-3.872 4.625-6.75Z"/><path fill="#092739" d="M565 545c2.5 1.375 2.5 1.375 5 3v2l1.688.688C575.2 552.68 578.18 555.36 580 559l-2 2-1.32-1.54c-2.94-3.397-5.882-6.715-9.117-9.835C565 547 565 547 565 545Z"/><path fill="#09283E" d="M383 388c.582 1.89.582 1.89 1 4-1.313 1.75-1.313 1.75-3 3h-2l-1 3h-2v2l-2-1c2.378-4.49 5.36-7.522 9-11Z"/><path fill="#05283D" d="m412.25 386.875 2.258.027c1.83.024 3.661.06 5.492.098v1l-2.852.367-3.773.508-3.727.492c-3.388.588-6.425 1.453-9.648 2.633v-3c3.842-2.568 7.814-2.227 12.25-2.125Z"/><path fill="#D2DEE5" d="m403 340 3 1-13 13-1-2c1.375-2 1.375-2 3-4h2l1-3h2l1-3h2v-2Z"/><path fill="#1D3646" d="m358 551 1 4-2.375 1.813c-2.77 2.098-2.77 2.098-4.625 5.187l-4-1 10-10Z"/><path fill="#092337" d="M241 488c2.062-.054 4.125-.093 6.188-.125l3.48-.07c3.25.19 5.419.801 8.332 2.195-3.836 1.279-7.198 1.026-11.21.938-2.722.06-5.145.446-7.79 1.062l1-4Z"/><path fill="#5EB7B9" d="M292 435h1c1.225 5.666 1.092 11.237 1 17-3.135-2.881-3.755-4.673-4-9 .495-2.747 1.212-5.313 2-8Z"/><path fill="#091F30" d="m452 436 4 2v2l1.813.188c3.092 1.148 3.658 2.954 5.187 5.812a163.192 163.192 0 0 0 3 4c-3.856-1.586-6.332-4.065-9.25-7l-2.703-2.688C452 438 452 438 452 436Z"/><path fill="#156F8F" d="M466 315h11v20l-3-3 1-1c.237-2.526.422-5.031.563-7.563l.13-2.154c.107-1.76.207-3.522.307-5.283h-10v-1Z"/><path fill="#11293D" d="M610 281h3c4 4.343 4 4.343 4 7h2l1 7-1.625-2.063c-2.323-2.873-4.739-5.635-7.203-8.386C610 283 610 283 610 281Z"/><path fill="#C1EBEC" d="M432 924c8.064-.129 15.975.203 24 1v1c-2.687.224-5.373.43-8.063.625l-2.279.195c-5.053.35-8.868-.153-13.658-1.82v-1Z"/><path fill="#09293B" d="m348 562 2 1a390.877 390.877 0 0 1-2.313 3.375l-1.3 1.898C345 570 345 570 342 572c-2.188-.375-2.188-.375-4-1 1-2 1-2 2.75-2.813 2.972-1.568 4.953-3.762 7.25-6.187Z"/><path fill="#0C2D40" d="M687 563c-1.875 4.774-5.206 7.203-9.813 9.25L675 573v-2c2.117-1.945 2.117-1.945 4.875-4.125l2.742-2.195C685 563 685 563 687 563Z"/><path fill="#04263B" d="M457 547c1.813.188 1.813.188 4 1a87.917 87.917 0 0 1 3 5 89.165 89.165 0 0 0 4 4l-1 2a1071.854 1071.854 0 0 1-5-4.875l-2.813-2.742C457 549 457 549 457 547Z"/><path fill="#053B48" d="M233.328 468.285 235 469c-2.438 3.657-3.913 3.749-8 5l-3 2-3-1a346.43 346.43 0 0 1 4.75-3.563l2.672-2.003C231 468 231 468 233.328 468.285Z"/><path fill="#6DBFB7" d="m432 407 2 1c1.03 5.415 2.164 11.732-.438 16.813L432 427c-1.11-3.329-.816-3.783 0-7 .068-2.25.085-4.5.063-6.75l-.028-3.547L432 407Z"/><path fill="#69C2B9" d="M807 303c3.234 2.953 5.222 5.88 7.25 9.75l1.578 2.984L817 318l-2 1-1.813-3.313c-1.186-2.103-2.095-3.602-3.875-5.25-2.007-2.198-1.992-4.557-2.312-7.437Z"/><path fill="#59BBB5" d="M211 298c.676 1.777.676 1.777 1 4-1.145 1.816-1.145 1.816-2.813 3.563-1.987 2.12-3.559 3.994-5.187 6.437l-2-1a5466.3 5466.3 0 0 1 3.938-5.938l1.13-1.708c2.819-4.24 2.819-4.24 3.932-5.354Z"/><path fill="#BFEDEE" d="M744 909v2c-4.655.92-9.147 1.122-13.875 1.063l-2.086-.014c-1.68-.012-3.36-.03-5.039-.049v-1c7.055-1.204 13.834-2.281 21-2Z"/><path fill="#69BFBC" d="M161 608h2a556.32 556.32 0 0 1 2 5.625l1.125 3.164c.88 3.229 1.035 5.883.875 9.211-1.754-3.272-2.957-6.604-4.125-10.125l-1.07-3.195C161 610 161 610 161 608Z"/><path fill="#096F92" d="m780 551-2.188 1.688c-2.787 2.291-5.298 4.727-7.812 7.312l-3-1a252.982 252.982 0 0 1 3.688-4l2.074-2.25c2.651-2.073 3.955-2.118 7.238-1.75Z"/><path fill="#31819F" d="M464 697h4l3 8h-4c-3-5.75-3-5.75-3-8Z"/><path fill="#54B1AC" d="m698 423 2 1-3 1v2h-3l-.75 1.625c-1.547 2.94-3.38 5.633-5.25 8.375l-1-3c2.51-4.681 6.03-8.93 11-11Z"/><path fill="#083E4E" d="m389 263 2 1c-2.564 4.179-5.02 7.125-9 10l-2-1 3.375-3.875 1.898-2.18A91.238 91.238 0 0 1 389 263Z"/><path fill="#CAF4F8" d="M610 851h-2v3h-12c4.263-2.842 8.964-5.014 14-3Z"/><path fill="#4BAEAE" d="M725 593h2c.054 2.125.093 4.25.125 6.375l.07 3.586C727 606 727 606 725 608c-1.097-3.411-.942-6.207-.563-9.75l.31-2.984L725 593Z"/><path fill="#1C3242" d="m614 574 7 2v3l4 2-1 3-1.426-1.242-1.886-1.633-1.864-1.617c-1.959-1.672-1.959-1.672-4.824-3.508v-2Z"/><path fill="#5FBDB9" d="m229 274 1 3c-1.313 2.188-1.313 2.188-3 4h-2l-.875 1.813C223 285 223 285 221 288l-2-1c1.478-1.98 2.958-3.959 4.438-5.938l1.275-1.708c3.174-4.24 3.174-4.24 4.287-5.354Z"/><path fill="#112738" d="M519 216c2.188 0 2.188 0 5 1 2.884 3.336 4.853 6.59 5.313 11l-.313 2a696.778 696.778 0 0 1-3.875-5.875c-1.924-2.83-3.951-5.485-6.125-8.125Z"/><path fill="#5FB5B7" d="M314 579c1.46.45 2.918.91 4.375 1.375l2.46.773C323 582 323 582 325 584l-2.074-.496c-3.3-.568-6.392-.6-9.738-.567l-3.52.028L307 583c3-2 3-2 7-2v-2Z"/><path fill="#BFE6EB" d="m309.625 578.938 2.477.027L314 579v2l-10 2-1-3c2.405-1.203 3.95-1.1 6.625-1.063Z"/><path fill="#5DB7B2" d="M305 423v2l-2.75 1.688c-3.931 2.797-5.121 5.055-7.25 9.312l-2-1c1.172-4.836 6.592-12 12-12Z"/><path fill="#D4F3F5" d="M295 428c0 3.876-1.472 6.456-3 10-.691 2.779-.691 2.779-1 5h-1c-.565-9.612-.565-9.612 3-14l2-1Z"/><path fill="#1B3D4F" d="m302 418 11 1v1l-1.793.113c-4.935.41-7.989 1.158-12.207 3.887l-3-1c3.75-3 3.75-3 6-3v-2Z"/><path fill="#0F2F42" d="m523 247 3 1-2.438 2c-3.313 3.88-3.308 6-3.562 11h-1v-9l-2-1c2.813-2.063 2.813-2.063 6-4Z"/><path fill="#D3F1F8" d="m741 778 2 1a417.694 417.694 0 0 1-2.875 3.5l-1.617 1.969L737 786h-2l-1 2-2-2 9-8Z"/><path fill="#CBECF6" d="M771 750c0 4.09-1.699 5.45-4.332 8.414-2.037 1.937-3.959 2.869-6.668 3.586 3.509-4.184 7.08-8.196 11-12Z"/><path fill="#BCE3EC" d="M860 585h1c.054 1.437.093 2.875.125 4.313l.07 2.425C861 594 861 594 859 597a75.316 75.316 0 0 0-1 5h-2l4-17Z"/><path fill="#5EBBB6" d="M296 589h3l-2 4h-2l-.438 1.813c-.45 1.749-.99 3.474-1.562 5.187h-2c2-8 2-8 5-11Z"/><path fill="#5BB9B4" d="M434 151v2c-4.504 1.757-8.176 2.193-13 2l1-2c4.296-1.268 7.51-2 12-2Z"/><path fill="#C8F0ED" d="M452 145c3.258-.293 3.258-.293 7.125-.188l3.883.083L466 145v1l-16 2 2-3Z"/><path fill="#092838" d="m496 801 16 3v1c-1.414.224-2.832.428-4.25.625l-2.39.352c-2.724.027-4.026-.636-6.36-1.977l-3-1v-2Z"/><path fill="#4EADB0" d="M291 600h1l-.125 2.625c.13 3.499.885 6.12 2.125 9.375h2l-1 3c-2.365-2.15-4.007-3.937-5-7 .136-2.728.55-5.296 1-8Z"/><path fill="#20384A" d="M344 460c3.21 1.382 5.05 2.924 7.25 5.625l1.578 1.914L354 469h-3v-2l-1.813-.813c-2.185-1.186-3.6-2.283-5.187-4.187v-2Z"/><path fill="#142C3A" d="M611 390c5.988 1.314 9.034 4.612 13 9l-2 2-1.563-2.188c-2.861-3.302-5.852-5.33-9.437-7.812v-1Z"/><path fill="#62BBBA" d="M378 839c4.284.504 8.137 1.013 12 3l2 3a417.219 417.219 0 0 1-4.75-1.313l-2.672-.738c-2.636-.97-4.432-2.16-6.578-3.949Z"/><path fill="#4DB1B0" d="M264 672h2l-.621 1.793C264 677.837 262.682 681.769 262 686h-1v-10h2l1-4Z"/><path fill="#3CA3A8" d="M477 668h2c-1.45 3.791-3.152 7.387-5 11l-3-1c0-2 0-2 1.875-3.875L475 672c1.235-2.133 1.235-2.133 2-4Z"/><path fill="#1A4B5C" d="M289 597h1l.148 2.266.227 2.984c.07.975.14 1.95.21 2.953.261 2.778.261 2.778 1.517 4.969C293 612 293 612 292 615c-2.918-4.067-3.338-6.85-3.188-11.813l.083-3.519L289 597Z"/><path fill="#0B7E93" d="m227 546 2.5.875c3.808 1.224 7.613 2.187 11.5 3.125v1c-3.043.73-5.867 1.236-9 1-2.373-1.761-3.388-3.452-5-6Z"/><path fill="#0B788D" d="m394 460 1.793.621C399.837 462 403.769 463.318 408 464v1c-3.381.29-6.63.45-10 0-2.625-2.5-2.625-2.5-4-5Z"/><path fill="#24969E" d="m649 444 2 2-2 3h-2l-.75 1.813c-1.414 2.473-2.9 3.62-5.25 5.187v-3h2v-2h2l1-3h2l1-4Z"/><path fill="#0B2C3D" d="m686 425 3 1c-1.45 3.791-3.152 7.387-5 11-1.097-3.29-.8-4.713 0-8h2v-4Z"/><path fill="#D1DDE5" d="m298 291 2 1-11 11c1.4-4.452 3.601-6.856 7-10l2-2Z"/><path fill="#133246" d="m568 634 5 1 1 5h-3c-3-3.333-3-3.333-3-6Z"/><path fill="#5ABDB4" d="M155 584h2l2 12h-2c-1.292-4.12-2.263-7.668-2-12Z"/><path fill="#6AC0BA" d="m415.5 395.813 2.969-.043C421 396 421 396 423 398l-3.625-.063c-3.555-.006-6.88.364-10.375 1.063l-1-2c2.602-1.3 4.597-1.168 7.5-1.188Z"/><path fill="#58BEB8" d="M299 210c0 2 0 2-1.39 3.543l-1.86 1.644-1.828 1.668C292 218 292 218 289.766 217.675L288 217a790.547 790.547 0 0 1 4.375-3.5l2.46-1.969C297 210 297 210 299 210Z"/><path fill="#D2F1F7" d="m802 713 1 3c-3.083 5.71-3.083 5.71-6.145 6.68L795 723c.978-1.48 1.957-2.96 2.938-4.438l1.652-2.496C801 714 801 714 802 713Z"/><path fill="#183042" d="m715 717-1 3-13-1v-1c1.583-.17 3.166-.335 4.75-.5l2.672-.281C711 717 711 717 715 717Z"/><path fill="#CFEEF5" d="m813 697 1 2a100.644 100.644 0 0 1-3 6h-2l-1 4h-2c1.557-4.671 4.084-8.087 7-12Z"/><path fill="#C7E8E9" d="M510 670c-3.847 2.084-7.9 3.497-12 5v-3c3.9-2.6 7.474-2.15 12-2Z"/><path fill="#0A2537" d="M626 581c2.695 2.695 5 6.084 5 10-3-1-3-1-4.75-3.313-1.25-2.687-1.25-2.687-.938-5L626 581Z"/><path fill="#1F3744" d="M531 471c2.71.155 4.466.482 6.445 2.402 1.232 1.496 2.398 3.044 3.555 4.598-3.567 0-4.105-.637-6.688-2.938l-1.886-1.652L531 472v-1Z"/><path fill="#66BFBA" d="M835 352c3.172 3.625 4.429 7.512 6 12h-2v-3h-3l-1-9Z"/><path fill="#066A8D" d="m345 729 1 3c-2.25 2.563-2.25 2.563-5 5-2.313-.188-2.313-.188-4-1 3.75-3 3.75-3 6-3l2-4Z"/><path fill="#B7E3E4" d="m594.125 693.938 3.32.027L600 694v1c-1.956.389-3.915.76-5.875 1.125l-3.305.633L588 697l-2-2c2.765-1.382 5.046-1.095 8.125-1.063Z"/><path fill="#52B6B9" d="M288 643h2c.375 2.75.375 2.75 0 6-4.842 4-4.842 4-8 4 .75-1.938.75-1.938 2-4 2.125-.75 2.125-.75 4-1v-5Z"/><path fill="#57B7AE" d="M690 588c.75 1.625.75 1.625 1 4-1.813 3.25-1.813 3.25-4 6h-2c1.156-3.912 2.355-6.875 5-10Z"/><path fill="#1F3647" d="M466 510h1l.402 2.082.536 2.73.527 2.708c.512 2.594.512 2.594 1.535 5.48l-3-1c-.766-1.96-.766-1.96-1.25-4.375l-.516-2.398C465 513 465 513 466 510Z"/><path fill="#459D9B" d="m683 440 1 4 3 1c.688 2.063.688 2.063 1 4l-4 1-1-10Z"/><path fill="#358AA2" d="M861 428h1c.365 1.58.717 3.165 1.063 4.75l.597 2.672c.338 2.565.152 4.149-.66 6.578-2.28-3.42-2.22-4.682-2.125-8.688l.055-3.011L861 428Z"/><path fill="#193749" d="M715 333v2c-3.175 1.908-5.106 2.16-8.75 1.625l-2.422-.336L702 336v-1c1.791-.335 3.583-.668 5.375-1l3.023-.563C713 333 713 333 715 333Z"/><path fill="#5DBCB5" d="M196 321c.625 1.813.625 1.813 1 4l-2 3h-2l-2 5-1-2c1.215-2.383 1.215-2.383 2.938-5.125l1.714-2.758L196 321Z"/><path fill="#0C2536" d="M324 292c3.149 1.37 5.048 2.875 7.25 5.5l1.578 1.844C334 301 334 301 334 303c-4.04-1.347-4.772-3.448-7-7a241.92 241.92 0 0 0-3-4Z"/><path fill="#E2E8EF" d="m408 280 2 1-6 7-4-1 8-7Z"/><path fill="#51B4B7" d="m284 266 4 2c-5.75 4-5.75 4-8 4 .313-1.875.313-1.875 1-4l3-2Z"/><path fill="#D5F5F5" d="M808 895c-1.75 3.875-1.75 3.875-4 5-2.008-.281-4.01-.61-6-1 3.137-2.092 6.145-4 10-4Z"/><path fill="#5EB7B2" d="m212 880 1 2-1.438 1.188c-1.914 2.22-2.175 3.946-2.562 6.812l-2-1c.48-4.314 1.746-6.166 5-9Z"/><path fill="#60BAB8" d="M292 864c-1.5 1.563-1.5 1.563-4 3-2.774-.032-5.253-.496-8-1 3.9-2.6 7.474-2.15 12-2Z"/><path fill="#D2F2F8" d="M686 818c-1 3-1 3-3.813 4.75-3.327 1.305-3.983 1.279-7.187.25a804.91 804.91 0 0 1 4.375-2.5l2.46-1.406C684 818 684 818 686 818Z"/><path fill="#DAF5F6" d="M400 705h2l-3 11h-1c-.25-7.625-.25-7.625 2-11Z"/><path fill="#329FA3" d="m664 671 1 2c-.777 1.945-.777 1.945-1.938 4.125l-1.152 2.195L661 681l-3-1 2-1 .438-1.813c.668-2.6 1.873-4.13 3.562-6.187Z"/><path fill="#183448" d="m365 479 3 3-2 4-4-1 2-3 1-3Z"/><path fill="#128197" d="M620 462c-1.708 2.106-2.521 2.938-5.262 3.293l-2.426-.106-2.449-.082L608 465c8.885-4.558 8.885-4.558 12-3Z"/><path fill="#CBE7EB" d="M706 420c-3.285 2.19-6.207 2.998-10 4v-3c3.215-1.607 6.436-1.057 10-1Z"/><path fill="#33999F" d="m354 675 1.25 1.5c1.872 1.934 1.872 1.934 5.75 1.5-1.375 2-1.375 2-3 4h-2l-2-7Z"/><path fill="#61BBB4" d="M186 668h2a417.885 417.885 0 0 1 2 3.813l1.125 2.144C192 676 192 676 192 679c-2.972-2.548-4.415-5.453-6-9v-2Z"/><path fill="#49B4B4" d="m277 653 4 2-6 5c.875-5.875.875-5.875 2-7Z"/><path fill="#0A87A0" d="M603 465h6l-1.938 1.688c-2.259 2.533-2.693 3.995-3.062 7.312h-1v-9Z"/><path fill="#1A3E4B" d="m696 422-7 5v-4c3.625-2.125 3.625-2.125 7-1Z"/><path fill="#123447" d="m580 393 3 1a858.147 858.147 0 0 1-2.938 3.5l-1.652 1.969L577 401h-1c-.25-2.313-.25-2.313 0-5 1.813-1.875 1.813-1.875 4-3Z"/><path fill="#152C3D" d="m615 317 2 1c-1.375 2-1.375 2-3 4h-2v2h-5l2.313-1.813c2.035-1.657 3.885-3.29 5.687-5.187Z"/><path fill="#DDE7EC" d="M697 290c-.98 2.448-1.58 3.748-3.875 5.125L691 296l-2.25 1.125L687 298c6.435-8 6.435-8 10-8Z"/><path fill="#349597" d="M461 276c3.698 1.233 3.935 2.2 5.688 5.563l1.324 2.503L469 286h-3l-5-10Z"/><path fill="#5ABEBB" d="m280 223 1 3-6 5-2-2 7-6Z"/><path fill="#08798F" d="M548 209c4 2 4 2 5.375 3.875C554 215 554 215 552 219l-4-10Z"/><path fill="#DFFBFA" d="M814 882c2 2 2 2 2.082 3.875l-.27 2.125-.23 2.125C815 892 815 892 812 894c0-3 0-3 1-4v-2.938c0-3.062 0-3.062 1-5.062Z"/><path fill="#D9F5F7" d="M398 848c1.626.114 3.25.242 4.875.375.905.07 1.81.14 2.742.21C408 849 408 849 410 851c-3.479 1.16-4.342.775-7.688-.438l-2.449-.87L398 849v-1Z"/><path fill="#12739A" d="M788 727h2c-.398 2.886-.79 3.822-3.063 5.75L785 734c.75-4.75.75-4.75 3-7Z"/><path fill="#BDE4EA" d="m575 707 2 2c-.462 6.462-.462 6.462-3 9l1-11Z"/><path fill="#062A3F" d="M402 696h5l-6 7-1-4h3l-1-3Z"/><path fill="#379AA0" d="m480 660 4 2c-1.75 4.875-1.75 4.875-4 6v-8Z"/><path fill="#1D899A" d="m383 551 1 2c-2.478 3.452-3.796 5.232-8 6l2.938-3.438 1.652-1.933A49.663 49.663 0 0 1 383 551Z"/><path fill="#132E41" d="M573 457c0 3 0 3-1 6-3.063 1.188-3.063 1.188-6 2l2.938-3.438 1.652-1.933A49.663 49.663 0 0 1 573 457Z"/><path fill="#163248" d="M617.313 438.313 619 439c-4.43 3.077-4.43 3.077-7.313 2.688L610 441c4.43-3.077 4.43-3.077 7.313-2.688Z"/><path fill="#1B3444" d="m446 429 7 6-2 2c-2.5-2.313-2.5-2.313-5-5v-3Z"/><path fill="#1E3A46" d="M625 424h2l-2 8-4 1 4-9Z"/><path fill="#47AAAC" d="M718 424c3.35 1.117 3.793 1.747 5.688 4.563l1.324 1.94L726 432l-1 2a639.945 639.945 0 0 1-3.5-3.875l-1.969-2.18C718 426 718 426 718 424Z"/><path fill="#DDFAFA" d="m695 422 1 3-6 4v-3c2.5-2.188 2.5-2.188 5-4Z"/><path fill="#076586" d="M743 344c-1.393 3.367-2.979 4.986-6 7l-2-1a376.146 376.146 0 0 1 2.875-3l1.617-1.688C741 344 741 344 743 344Z"/><path fill="#51B8AF" d="m264 237 2 1-7 8-2-2 7-7Z"/><path fill="#52B9B0" d="m503 672 3 1-2 3-5-1c1.813-1.563 1.813-1.563 4-3Z"/><path fill="#CDECF5" d="M848 626h1c.18 3.947.094 6.598-2 10h-2l3-10Z"/><path fill="#083E4A" d="M710 577c3.625.375 3.625.375 7 1v3l-9-2 2-2Z"/><path fill="#183950" d="M352 528h2v3l4 2v3c-4.8-3.446-4.8-3.446-5.813-6.25L352 528Z"/><path fill="#132F3F" d="m750 521 8 6c-2 1-2 1-4.563.375-2.437-1.375-2.437-1.375-3.25-4L750 521Z"/><path fill="#0A2130" d="M778 493c3.161 1.37 3.993 1.99 6 5l-1 3c-5-5.75-5-5.75-5-8Z"/><path fill="#092F45" d="m358 492 1 3-4 2c1.875-3.875 1.875-3.875 3-5Zm-5 3 2 3-4 1 2-4Z"/><path fill="#1B333B" d="M629 357c3.837.96 4.597 1.236 7 4l-1 3-6-7Z"/><path fill="#51B8B4" d="m665 280 3 1-5 7-1-4 3-1v-3Z"/><path fill="#46A2A6" d="M316 263h10l1 3-11-2v-1Z"/><path fill="#09464F" d="m476 199 2 2-7 6c1.186-3.375 2.276-5.647 5-8Z"/><path fill="#256D88" d="M549 697h2c-.75 2.875-.75 2.875-2 6l-4 2 4-8Z"/><path fill="#2B9397" d="M443 639c0 3 0 3-2 5.188L439 646v-4c2-1.75 2-1.75 4-3Z"/><path fill="#045A7A" d="m729 640 2 1-2 3h-2v6h-1c-.293-6.055-.293-6.055 0-8l3-2Z"/><path fill="#05263A" d="M680 514c1.15.954 2.294 1.914 3.438 2.875l1.933 1.617C687 520 687 520 688 522c-3.175-.34-4.023-1.025-6.25-3.438C680 516 680 516 680 514Z"/><path fill="#65C1B9" d="M159 406h2c.262 3.146.248 4.618-1.5 7.313L158 415l1-9Z"/><path fill="#254154" d="m409 361 3 1v2a100.644 100.644 0 0 1-6 3l-2-1 5-5Z"/><path fill="#063F51" d="m275 276 3 1-6 6-2-1 5-6Z"/><path fill="#4FBAB2" d="m272 230 3 1-6 5-2-1 5-5Z"/><path fill="#43BEC3" d="M553 211c3.367 1.393 4.986 2.979 7 6l-1 2a376.146 376.146 0 0 1-3-2.875l-1.688-1.617C553 213 553 213 553 211Z"/></svg>
